<svg xmlns="http://www.w3.org/2000/svg" width="73" height="72" viewBox="0 0 73 72" fill="none"><g filter="url(#filter0_dd_343_552)"><path d="M12.8281 26C12.8281 12.7452 23.5733 2 36.8281 2C50.083 2 60.8281 12.7452 60.8281 26C60.8281 39.2548 50.083 50 36.8281 50C23.5733 50 12.8281 39.2548 12.8281 26Z" fill="#F9A52F"></path><g clip-path="url(#clip0_343_552)"><path d="M33.1081 19.2204C32.6081 18.9271 32.1081 18.9171 31.6081 19.1904C31.1081 19.4771 30.8481 19.9138 30.8281 20.5004V31.5004C30.8481 32.0871 31.1081 32.5238 31.6081 32.8104C32.1081 33.0838 32.6081 33.0738 33.1081 32.7804L42.1081 27.2804C42.5681 26.9871 42.8081 26.5604 42.8281 26.0004C42.8081 25.4604 42.5681 25.0338 42.1081 24.7204L33.1081 19.2204Z" fill="white"></path></g></g><defs><filter id="filter0_dd_343_552" x="0.828125" y="0" width="72" height="72" filterUnits="userSpaceOnUse" color-interpolation-filters="sRGB"></filter><clipPath id="clip0_343_552"><rect width="12" height="14.0159" fill="white" transform="translate(30.8281 18.9922)"></rect></clipPath></defs></svg>