<svg xmlns="http://www.w3.org/2000/svg" width="64" height="64" viewBox="0 0 64 64" fill="#F9A630"><path d="M32 10c-11.05 0-20 8.95-20 20v8a4 4 0 0 0 4 4h4v-12h-4v-2c0-8.84 7.16-16 16-16s16 7.16 16 16v2h-4v12h4a4 4 0 0 0 4-4v-8c0-11.05-8.95-20-20-20z"></path><rect x="38" y="40" width="6" height="4" rx="1"></rect><path d="M44 44v2c0 2.2-1.8 4-4 4h-8v-4h8v-2h4z"></path><path d="M21.8 36.2c4.1 4.9 8.1 8.1 12.2 9.5 1.1.4 2.2.2 3-.6l4.1-4.1c.6-.6.8-1.5.4-2.3l-3-6c-.4-.8-1.3-1.2-2.1-1.1l-4.9.8c-1.3-1.1-2.7-2.3-4.1-4.1l.8-4.9c.1-.9-.3-1.7-1.1-2.1l-6-3c-.8-.4-1.7-.2-2.3.4l-4.1 4.1c-.8.8-1 1.9-.6 3 1.3 4 4.5 8 9.5 12.2z"></path></svg>