<svg xmlns="http://www.w3.org/2000/svg" width="64" height="64" viewBox="0 0 64 64" fill="#F9A630"><g fill="#F9A630"><path d="M48 6h-8.18C39.4 3.67 37.03 2 34.25 2h-4.5C27.47 2 25.1 3.67 24.18 6H16c-2.21 0-4 1.79-4 4v48c0 2.21 1.79 4 4 4h32c2.21 0 4-1.79 4-4V10c0-2.21-1.79-4-4-4zM29.75 6h4.5c.69 0 1.25.56 1.25 1.25S34.94 8.5 34.25 8.5h-4.5C28.56 8.5 28 7.94 28 7.25S28.56 6 29.75 6zM48 58H16V10h8v2c0 1.1.9 2 2 2h12c1.1 0 2-.9 2-2v-2h8v48z"></path><path d="M32 30c3.31 0 6-2.69 6-6s-2.69-6-6-6-6 2.69-6 6 2.69 6 6 6zm0-8c1.1 0 2 .9 2 2s-.9 2-2 2-2-.9-2-2 .9-2 2-2zM44 48c0-6.63-10.67-10-12-10s-12 3.37-12 10v2h24v-2zm-20-1.16c.49-1.31 3.29-3.34 8-3.34s7.51 2.03 8 3.34V48H24v-1.16z"></path></g></svg>