<svg xmlns="http://www.w3.org/2000/svg" width="15" height="14" viewBox="0 0 15 14" fill="none"><g clip-path="url(#clip0_343_505)"><path d="M0.0625 1C0.0625 0.706667 0.155833 0.466666 0.3425 0.28C0.529167 0.0933331 0.769167 0 1.0625 0C3.4825 0.02 5.66917 0.613333 7.6225 1.78C9.5825 2.92667 11.1358 4.48 12.2825 6.44C13.4492 8.39333 14.0425 10.58 14.0625 13C14.0625 13.2933 13.9692 13.5333 13.7825 13.72C13.5958 13.9067 13.3558 14 13.0625 14C12.7692 14 12.5292 13.9067 12.3425 13.72C12.1558 13.5333 12.0625 13.2933 12.0625 13C12.0425 10.96 11.5425 9.10667 10.5625 7.44C9.5825 5.79333 8.26917 4.48 6.6225 3.5C4.95583 2.52 3.1025 2.02 1.0625 2C0.769167 2 0.529167 1.90667 0.3425 1.72C0.155833 1.53333 0.0625 1.29333 0.0625 1ZM0.0625 12C0.0825 11.2467 0.415833 10.6733 1.0625 10.28C1.72917 9.90667 2.39583 9.90667 3.0625 10.28C3.70917 10.6733 4.0425 11.2467 4.0625 12C4.0425 12.7533 3.70917 13.3267 3.0625 13.72C2.39583 14.0933 1.72917 14.0933 1.0625 13.72C0.415833 13.3267 0.0825 12.7533 0.0625 12ZM1.0625 4C2.72917 4.02 4.23917 4.42667 5.5925 5.22C6.94583 6.03333 8.02917 7.11667 8.8425 8.47C9.63583 9.82333 10.0425 11.3333 10.0625 13C10.0625 13.2933 9.96917 13.5333 9.7825 13.72C9.59583 13.9067 9.35583 14 9.0625 14C8.76917 14 8.52917 13.9067 8.3425 13.72C8.15583 13.5333 8.0625 13.2933 8.0625 13C8.0425 11.6867 7.71917 10.51 7.0925 9.47C6.4925 8.40333 5.65917 7.57 4.5925 6.97C3.5525 6.34333 2.37583 6.02 1.0625 6C0.769167 6 0.529167 5.90667 0.3425 5.72C0.155833 5.53333 0.0625 5.29333 0.0625 5C0.0625 4.70667 0.155833 4.46667 0.3425 4.28C0.529167 4.09333 0.769167 4 1.0625 4Z" fill="white"></path></g><defs><clipPath id="clip0_343_505"><rect width="14" height="14" fill="white" transform="translate(0.0625)"></rect></clipPath></defs></svg>