<svg xmlns="http://www.w3.org/2000/svg" width="21" height="17" viewBox="0 0 21 17" fill="none"><path d="M0.660156 5.0625V4.4375C0.660156 3.92969 1.05078 3.5 1.59766 3.5H15.6602V1.625C15.6602 0.804688 16.6367 0.375 17.2227 1L20.3477 4.125C20.7383 4.47656 20.7383 5.0625 20.3477 5.41406L17.2227 8.53906C16.6367 9.125 15.6602 8.73438 15.6602 7.875V6H1.59766C1.05078 6 0.660156 5.60938 0.660156 5.0625ZM19.7227 11C20.2305 11 20.6602 11.4297 20.6602 11.9375V12.5625C20.6602 13.1094 20.2305 13.5 19.7227 13.5H5.66016V15.375C5.66016 16.2344 4.64453 16.625 4.05859 16.0391L0.933594 12.9141C0.542969 12.5625 0.542969 11.9766 0.933594 11.625L4.05859 8.5C4.64453 7.875 5.66016 8.30469 5.66016 9.125V11H19.7227Z" fill="#FFAA2B"></path></svg>