<svg xmlns="http://www.w3.org/2000/svg" width="21" height="21" viewBox="0 0 21 21" fill="none"><path d="M10.3301 0.8125C15.6816 0.8125 20.0176 5.14844 20.0176 10.5C20.0176 15.8516 15.6816 20.1875 10.3301 20.1875C4.97852 20.1875 0.642578 15.8516 0.642578 10.5C0.642578 5.14844 4.97852 0.8125 10.3301 0.8125ZM13.9238 13.0391C14.002 12.9609 14.0801 12.8047 14.0801 12.6484C14.0801 12.4531 13.9629 12.2969 13.8457 12.1797L11.5801 10.5V4.875C11.5801 4.5625 11.2676 4.25 10.9551 4.25H9.70508C9.35352 4.25 9.08008 4.5625 9.08008 4.875V10.9688C9.08008 11.4766 9.27539 11.9062 9.66602 12.1797L12.2832 14.1328C12.3613 14.2109 12.5176 14.2891 12.6348 14.2891C12.8691 14.2891 13.0254 14.1719 13.1426 14.0156L13.9238 13.0391Z" fill="#FFAA2B"></path></svg>