<svg xmlns="http://www.w3.org/2000/svg" width="21" height="15" viewBox="0 0 21 15" fill="none"><path d="M20.3555 12.5C20.668 12.5 20.9805 12.8125 20.9805 13.125V14.375C20.9805 14.7266 20.668 15 20.3555 15H2.23047C1.52734 15 0.980469 14.4531 0.980469 13.75V0.625C0.980469 0.3125 1.25391 0 1.60547 0H2.85547C3.16797 0 3.48047 0.3125 3.48047 0.625V12.5H20.3555ZM19.1055 1.25C19.418 1.25 19.7305 1.5625 19.6914 1.875V6.52344C19.6914 7.34375 18.7148 7.77344 18.1289 7.1875L16.8398 5.89844L13.0898 9.64844C12.6211 10.1562 11.8008 10.1562 11.332 9.64844L8.48047 6.79688L6.64453 8.59375C6.41016 8.82812 6.01953 8.82812 5.78516 8.59375L4.88672 7.69531C4.65234 7.46094 4.65234 7.07031 4.88672 6.83594L7.58203 4.14062C8.05078 3.63281 8.87109 3.63281 9.33984 4.14062L12.2305 6.99219L15.082 4.14062L13.793 2.85156C13.207 2.26562 13.6367 1.25 14.457 1.25H19.1055Z" fill="#FFAA2B"></path></svg>