<svg xmlns="http://www.w3.org/2000/svg" width="16" height="21" viewBox="0 0 16 21" fill="none"><path d="M14.8145 0.65625C15.2441 0.34375 15.8301 0.617188 15.8301 1.125V19.875C15.8301 20.4219 15.2051 20.6953 14.8145 20.3828L13.3301 18.625L11.1816 20.3828C11.0645 20.4609 10.9473 20.5391 10.791 20.5391C10.6738 20.5391 10.5566 20.4609 10.4395 20.3828L8.33008 18.625L6.18164 20.3828C6.06445 20.4609 5.94727 20.5391 5.79102 20.5391C5.67383 20.5391 5.55664 20.4609 5.43945 20.3828L3.33008 18.625L1.80664 20.3828C1.41602 20.6953 0.830078 20.4219 0.830078 19.875V1.125C0.830078 0.617188 1.41602 0.34375 1.80664 0.65625L3.33008 2.375L5.43945 0.65625C5.55664 0.578125 5.67383 0.5 5.83008 0.5C5.94727 0.5 6.06445 0.578125 6.18164 0.65625L8.33008 2.375L10.4395 0.65625C10.5566 0.578125 10.6738 0.5 10.8301 0.5C10.9473 0.5 11.0645 0.578125 11.1816 0.65625L13.3301 2.375L14.8145 0.65625ZM13.3301 14.5625V13.9375C13.3301 13.7812 13.1738 13.625 13.0176 13.625H3.64258C3.44727 13.625 3.33008 13.7812 3.33008 13.9375V14.5625C3.33008 14.7578 3.44727 14.875 3.64258 14.875H13.0176C13.1738 14.875 13.3301 14.7578 13.3301 14.5625ZM13.3301 10.8125V10.1875C13.3301 10.0312 13.1738 9.875 13.0176 9.875H3.64258C3.44727 9.875 3.33008 10.0312 3.33008 10.1875V10.8125C3.33008 11.0078 3.44727 11.125 3.64258 11.125H13.0176C13.1738 11.125 13.3301 11.0078 13.3301 10.8125ZM13.3301 7.0625V6.4375C13.3301 6.28125 13.1738 6.125 13.0176 6.125H3.64258C3.44727 6.125 3.33008 6.28125 3.33008 6.4375V7.0625C3.33008 7.25781 3.44727 7.375 3.64258 7.375H13.0176C13.1738 7.375 13.3301 7.25781 13.3301 7.0625Z" fill="#FFAA2B"></path></svg>