<svg xmlns="http://www.w3.org/2000/svg" width="20" height="21" viewBox="0 0 20 21" fill="none"><path d="M10 0.8125C15.3516 0.8125 19.6875 5.14844 19.6875 10.5C19.6875 15.8516 15.3516 20.1875 10 20.1875C4.64844 20.1875 0.3125 15.8516 0.3125 10.5C0.3125 5.14844 4.64844 0.8125 10 0.8125ZM14.7266 13.0781L12.1875 10.5L14.7266 7.96094C14.9219 7.80469 14.9219 7.49219 14.7266 7.29688L13.2031 5.77344C13.0078 5.57812 12.6953 5.57812 12.5391 5.77344L10 8.3125L7.46094 5.77344C7.26562 5.57812 6.95312 5.57812 6.79688 5.77344L5.23438 7.29688C5.03906 7.49219 5.03906 7.80469 5.23438 7.96094L7.8125 10.5L5.23438 13.0391C5.03906 13.2344 5.03906 13.5469 5.23438 13.7031L6.75781 15.2656C6.95312 15.4609 7.26562 15.4609 7.42188 15.2656L10 12.6875L12.5391 15.2656C12.6953 15.4609 13.0078 15.4609 13.2031 15.2656L14.7266 13.7422C14.9219 13.5469 14.9219 13.2344 14.7266 13.0781Z" fill="#EF4444"></path></svg>