<svg xmlns="http://www.w3.org/2000/svg" width="48" height="48" viewBox="0 0 48 48" fill="none"><rect width="48" height="48" rx="24" fill="#FFAA2B"></rect><path d="M22.8592 15.5125C23.2192 14.4073 24.7828 14.4073 25.1416 15.5125L26.4256 19.4629C26.504 19.7035 26.6565 19.9131 26.8612 20.0618C27.066 20.2105 27.3125 20.2907 27.5656 20.2909H31.72C32.8828 20.2909 33.3652 21.7789 32.4256 22.4629L29.0656 24.9037C28.8604 25.0525 28.7076 25.2625 28.6292 25.5035C28.5507 25.7445 28.5506 26.0042 28.6288 26.2453L29.9128 30.1957C30.2728 31.3009 29.0068 32.2213 28.0648 31.5373L24.7048 29.0965C24.4998 28.9477 24.253 28.8676 23.9998 28.8676C23.7465 28.8676 23.4997 28.9477 23.2948 29.0965L19.9348 31.5373C18.994 32.2213 17.7292 31.3009 18.088 30.1957L19.372 26.2453C19.4502 26.0042 19.45 25.7445 19.3716 25.5035C19.2931 25.2625 19.1403 25.0525 18.9352 24.9037L15.5764 22.4641C14.6368 21.7801 15.1204 20.2921 16.282 20.2921H20.4352C20.6884 20.2922 20.9352 20.2121 21.1402 20.0634C21.3452 19.9146 21.4979 19.7049 21.5764 19.4641L22.8604 15.5137L22.8592 15.5125Z" fill="white"></path></svg>