<svg xmlns="http://www.w3.org/2000/svg" width="44" height="44" viewBox="0 0 44 44" fill="none"><rect x="2" y="2" width="40" height="40" rx="20" fill="#3B82F6"></rect><rect x="2" y="2" width="40" height="40" rx="20" stroke="white" stroke-width="4"></rect><path d="M20.6042 15.5975C20.9592 14.1342 23.0408 14.1342 23.3958 15.5975C23.4491 15.8173 23.5535 16.0215 23.7006 16.1933C23.8477 16.3652 24.0332 16.4999 24.2422 16.5865C24.4512 16.673 24.6776 16.709 24.9032 16.6916C25.1287 16.6741 25.3469 16.6036 25.54 16.4858C26.8258 15.7025 28.2983 17.1742 27.515 18.4608C27.3974 18.6539 27.327 18.8719 27.3096 19.0973C27.2922 19.3227 27.3281 19.549 27.4146 19.7578C27.5011 19.9667 27.6356 20.1521 27.8073 20.2992C27.9789 20.4463 28.1829 20.5508 28.4025 20.6042C29.8658 20.9592 29.8658 23.0408 28.4025 23.3958C28.1827 23.4491 27.9785 23.5535 27.8067 23.7006C27.6348 23.8477 27.5001 24.0332 27.4135 24.2422C27.327 24.4512 27.291 24.6776 27.3084 24.9032C27.3259 25.1287 27.3964 25.3469 27.5142 25.54C28.2975 26.8258 26.8258 28.2983 25.5392 27.515C25.3461 27.3974 25.1281 27.327 24.9027 27.3096C24.6773 27.2922 24.451 27.3281 24.2422 27.4146C24.0333 27.5011 23.8479 27.6356 23.7008 27.8073C23.5537 27.9789 23.4492 28.1829 23.3958 28.4025C23.0408 29.8658 20.9592 29.8658 20.6042 28.4025C20.5509 28.1827 20.4465 27.9785 20.2994 27.8067C20.1523 27.6348 19.9668 27.5001 19.7578 27.4135C19.5488 27.327 19.3224 27.291 19.0968 27.3084C18.8713 27.3259 18.6531 27.3964 18.46 27.5142C17.1742 28.2975 15.7017 26.8258 16.485 25.5392C16.6026 25.3461 16.673 25.1281 16.6904 24.9027C16.7078 24.6773 16.6719 24.451 16.5854 24.2422C16.4989 24.0333 16.3644 23.8479 16.1927 23.7008C16.0211 23.5537 15.8171 23.4492 15.5975 23.3958C14.1342 23.0408 14.1342 20.9592 15.5975 26.1875C15.8173 26.1342 16.0215 26.0298 16.1933 25.8827C16.3652 25.7357 16.4999 25.5501 16.5865 25.3411C16.673 25.1322 16.709 24.9057 16.6916 24.6802C16.6741 24.4547 16.6036 24.2365 16.4858 24.0433C15.7025 22.7575 17.1742 21.285 18.4608 22.0683C19.2908 22.575 20.3742 22.1267 20.6042 21.1808V15.5975Z" stroke="white" stroke-width="1.66667" stroke-linecap="round" stroke-linejoin="round"></path><path d="M24.5 22C24.5 22.663 24.2366 23.2989 23.7678 23.7678C23.2989 24.2366 22.663 24.5 22 24.5C21.337 24.5 20.7011 24.2366 20.2322 23.7678C19.7634 23.2989 19.5 22.663 19.5 22C19.5 21.337 19.7634 20.7011 20.2322 20.2322C20.7011 19.7634 21.337 19.5 22 19.5C22.663 19.5 23.2989 19.7634 23.7678 20.2322C24.2366 20.7011 24.5 21.337 24.5 22Z" stroke="white" stroke-width="1.66667" stroke-linecap="round" stroke-linejoin="round"></path></svg>