<svg xmlns="http://www.w3.org/2000/svg" width="44" height="44" viewBox="0 0 44 44" fill="none"><rect x="2" y="2" width="40" height="40" rx="20" fill="#3B82F6"></rect><rect x="2" y="2" width="40" height="40" rx="20" stroke="white" stroke-width="4"></rect><path d="M19.5 22L21.1667 23.6667L24.5 20.3333M29.5 22C29.5 22.9849 29.306 23.9602 28.9291 24.8701C28.5522 25.7801 27.9997 26.6069 27.3033 27.3033C26.6069 27.9997 25.7801 28.5522 24.8701 28.9291C23.9602 29.306 22.9849 29.5 22 29.5C21.0151 29.5 20.0398 29.306 19.1299 28.9291C18.2199 28.5522 17.3931 27.9997 16.6967 27.3033C16.0003 26.6069 15.4478 25.7801 15.0709 24.8701C14.694 23.9602 14.5 22.9849 14.5 22C14.5 20.0109 15.2902 18.1032 16.6967 16.6967C18.1032 15.2902 20.0109 14.5 22 14.5C23.9891 14.5 25.8968 15.2902 27.3033 16.6967C28.7098 18.1032 29.5 20.0109 29.5 22Z" stroke="white" stroke-width="1.66667" stroke-linecap="round" stroke-linejoin="round"></path></svg>