<svg xmlns="http://www.w3.org/2000/svg" width="48" height="48" viewBox="0 0 48 48" fill="none"><rect width="48" height="48" rx="8" fill="#FFAA2B"></rect><path d="M23.0481 14.927C23.3481 14.006 24.6511 14.006 24.9501 14.927L26.4691 19.601C26.5345 19.8014 26.6616 19.9761 26.8322 20.1001C27.0028 20.224 27.2082 20.2908 27.4191 20.291H32.3341C33.3031 20.291 33.7051 21.531 32.9221 22.101L28.9461 24.989C28.7753 25.1131 28.6482 25.2882 28.583 25.489C28.5178 25.6898 28.5178 25.9061 28.5831 26.107L30.1011 30.781C30.4011 31.703 29.3461 32.469 28.5631 31.899L24.5871 29.011C24.4162 28.8867 24.2104 28.8198 23.9991 28.8198C23.7878 28.8198 23.582 28.8867 23.4111 29.011L19.4351 31.899C18.6521 32.469 17.5971 31.702 17.8971 30.781L19.4151 26.107C19.4804 25.9061 19.4804 25.6898 19.4152 25.489C19.35 25.2882 19.2229 25.1131 19.0521 24.989L15.0761 22.101C14.2921 21.531 14.6961 20.291 15.6641 20.291H20.5781C20.7892 20.291 20.9948 20.2243 21.1656 20.1004C21.3365 19.9764 21.4637 19.8016 21.5291 19.601L23.0481 14.927Z" stroke="white" stroke-width="2" stroke-linecap="round" stroke-linejoin="round"></path></svg>