<svg xmlns="http://www.w3.org/2000/svg" width="48" height="48" viewBox="0 0 48 48" fill="none"><rect width="48" height="48" rx="8" fill="#FFAA2B"></rect><path d="M29 32H34V30C34 29.3765 33.8057 28.7686 33.4441 28.2606C33.0826 27.7527 32.5718 27.37 31.9827 27.1658C31.3937 26.9615 30.7556 26.9459 30.1573 27.121C29.5589 27.2962 29.03 27.6534 28.644 28.143M29 32H19M29 32V30C29 29.344 28.874 28.717 28.644 28.143M28.644 28.143C28.2726 27.215 27.6318 26.4195 26.804 25.8591C25.9762 25.2988 24.9996 24.9993 24 24.9993C23.0004 24.9993 22.0238 25.2988 21.196 25.8591C20.3682 26.4195 19.7274 27.215 19.356 28.143M19 32H14V30C14 29.3765 14.1943 28.7686 14.5559 28.2606C14.9174 27.7527 15.4282 27.37 16.0173 27.1658C16.6063 26.9615 17.2444 26.9459 17.8427 27.121C18.4411 27.2962 18.97 27.6534 19.356 28.143M19 32V30C19 29.344 19.126 28.717 19.356 28.143M27 19C27 19.7956 26.6839 20.5587 26.1213 21.1213C25.5587 21.6839 24.7956 22 24 22C23.2044 22 22.4413 21.6839 21.8787 21.1213C21.3161 20.5587 21 19.7956 21 19C21 18.2044 21.3161 17.4413 21.8787 16.8787C22.4413 16.3161 23.2044 16 24 16C24.7956 16 25.5587 16.3161 26.1213 16.8787C26.6839 17.4413 27 18.2044 27 19ZM33 22C33 22.5304 32.7893 23.0391 32.4142 23.4142C32.0391 23.7893 31.5304 24 31 24C30.4696 24 29.9609 23.7893 29.5858 23.4142C29.2107 23.0391 29 22.5304 29 22C29 21.4696 29.2107 20.9609 29.5858 20.5858C29.9609 20.2107 30.4696 20 31 20C31.5304 20 32.0391 20.2107 32.4142 20.5858C32.7893 20.9609 33 21.4696 33 22ZM19 22C19 22.5304 18.7893 23.0391 18.4142 23.4142C18.0391 23.7893 17.5304 24 17 24C16.4696 24 15.9609 23.7893 15.5858 23.4142C15.2107 23.0391 15 22.5304 15 22C15 21.4696 15.2107 20.9609 15.5858 20.5858C15.9609 20.2107 16.4696 20 17 20C17.5304 20 18.0391 20.2107 18.4142 20.5858C18.7893 20.9609 19 21.4696 19 22Z" stroke="white" stroke-width="2" stroke-linecap="round" stroke-linejoin="round"></path></svg>