<svg xmlns="http://www.w3.org/2000/svg" width="32" height="32" viewBox="0 0 32 32" fill="none"><path d="M14.4776 4.68333C14.9576 3.20972 17.0424 3.20972 17.5208 4.68333L19.2328 9.95052C19.3374 10.2713 19.5407 10.5508 19.8137 10.7491C20.0867 10.9474 20.4154 11.0543 20.7528 11.0545H26.292C27.8424 11.0545 28.4856 13.0385 27.2328 13.9505L22.7528 17.2049C22.4792 17.4034 22.2755 17.6833 22.1709 18.0047C22.0663 18.326 22.0661 18.6723 22.1704 18.9937L23.8824 24.2609C24.3624 25.7345 22.6744 26.9617 21.4184 26.0497L16.9384 22.7953C16.6651 22.5969 16.3361 22.4901 15.9984 22.4901C15.6607 22.4901 15.3316 22.5969 15.0584 22.7953L10.5784 26.0497C9.32398 26.9617 7.63758 25.7345 8.11598 24.2609L9.82798 18.9937C9.93226 18.6723 9.93207 18.326 9.82744 18.0047C9.72282 17.6833 9.51913 17.4034 9.24558 17.2049L4.76718 13.9521C3.51438 13.0401 4.15918 11.0561 5.70798 11.0561H11.2456C11.5833 11.0562 11.9123 10.9495 12.1856 10.7512C12.4589 10.5529 12.6625 10.2732 12.7672 9.95213L14.4792 4.68492L14.4776 4.68333Z" fill="white"></path></svg>