<svg xmlns="http://www.w3.org/2000/svg" width="34" height="34" viewBox="0 0 34 34" fill="none"><path d="M11.666 16.6667L14.9993 20L21.666 13.3334M31.666 16.6667C31.666 18.6365 31.278 20.5871 30.5242 22.4069C29.7704 24.2268 28.6655 25.8804 27.2726 27.2733C25.8797 28.6662 24.2262 29.7711 22.4063 30.5249C20.5864 31.2787 18.6358 31.6667 16.666 31.6667C14.6962 31.6667 12.7456 31.2787 10.9258 30.5249C9.10588 29.7711 7.45229 28.6662 6.05941 27.2733C4.66653 25.8804 3.56164 24.2268 2.80782 22.4069C2.054 20.5871 1.66602 18.6365 1.66602 16.6667C1.66602 12.6884 3.24637 8.87313 6.05941 6.06009C8.87246 3.24704 12.6878 1.66669 16.666 1.66669C20.6443 1.66669 24.4596 3.24704 27.2726 6.06009C30.0857 8.87313 31.666 12.6884 31.666 16.6667Z" stroke="#F59E0B" stroke-width="3.33333" stroke-linecap="round" stroke-linejoin="round"></path></svg>