<svg xmlns="http://www.w3.org/2000/svg" width="20" height="20" viewBox="0 0 20 20" fill="none"><path d="M4.68751 2.5C4.51755 2.49994 4.35077 2.54608 4.20501 2.63349C4.05925 2.7209 3.94 2.84629 3.86001 2.99625L1.36001 7.68375C1.27458 7.84392 1.23749 8.02545 1.25325 8.20629C1.269 8.38713 1.33692 8.55951 1.44876 8.7025L9.26126 18.7025C9.34894 18.8147 9.46104 18.9055 9.58904 18.9679C9.71704 19.0304 9.85759 19.0628 10 19.0628C10.1424 19.0628 10.283 19.0304 10.411 18.9679C10.539 18.9055 10.6511 18.8147 10.7388 18.7025L18.5513 8.7025C18.6629 8.55939 18.7306 8.38694 18.7461 8.2061C18.7617 8.02526 18.7244 7.8438 18.6388 7.68375L16.1388 2.99625C16.0589 2.84648 15.9398 2.72121 15.7943 2.63381C15.6488 2.54642 15.4823 2.50017 15.3125 2.5H4.68751ZM3.58376 7.5L5.25001 4.375H6.84626L6.06501 7.5H3.58376ZM4.35376 9.375H6.28376L7.57001 13.4912L4.35376 9.375ZM8.24751 9.375H11.7525L10 14.9825L8.24751 9.375ZM13.7163 9.375H15.6463L12.43 13.4912L13.7175 9.375H13.7163ZM16.4163 7.5H13.935L13.1538 4.375H14.75L16.4163 7.5ZM12.0025 7.5H7.99751L8.77876 4.375H11.2213L12.0025 7.5Z" fill="#FDFCFF"></path></svg>