<svg xmlns="http://www.w3.org/2000/svg" xmlns:xlink="http://www.w3.org/1999/xlink" width="1000" zoomAndPan="magnify" viewBox="0 0 750 1124.99995" height="1500" preserveAspectRatio="xMidYMid meet"><defs><clipPath id="b01a0bc1b0"><path d="M 225 412.5 L 525 412.5 L 525 712.5 L 225 712.5 Z M 225 412.5 " clip-rule="nonzero"></path></clipPath></defs><rect x="-75" width="900" fill="#ffffff" y="-112.499995" height="1349.99994" fill-opacity="1"></rect><rect x="-75" width="900" fill="#ffffff" y="-112.499995" height="1349.99994" fill-opacity="1"></rect><g clip-path="url(#b01a0bc1b0)"><path fill="#00cc00" d="M 474.652344 712.5 L 275.347656 712.5 C 247.535156 712.5 225 689.964844 225 662.152344 L 225 462.847656 C 225 435.035156 247.535156 412.5 275.347656 412.5 L 474.652344 412.5 C 502.464844 412.5 525 435.035156 525 462.847656 L 525 662.152344 C 525 689.964844 502.464844 712.5 474.652344 712.5 Z M 474.652344 712.5 " fill-opacity="1" fill-rule="nonzero"></path></g><path fill="#ffffff" d="M 480.710938 488.640625 C 472.960938 480.890625 460.324219 480.890625 452.574219 488.640625 L 346.992188 594.21875 L 297.949219 545.238281 C 290.199219 537.488281 277.5625 537.488281 269.8125 545.238281 C 262.058594 552.992188 262.058594 565.625 269.8125 573.378906 L 332.144531 635.707031 C 332.339844 635.96875 332.597656 636.164062 332.859375 636.425781 C 336.765625 640.332031 341.847656 642.289062 346.929688 642.222656 C 352.007812 642.222656 357.152344 640.269531 360.996094 636.425781 C 361.257812 636.164062 361.453125 635.96875 361.714844 635.707031 L 480.710938 516.710938 C 488.527344 508.960938 488.527344 496.390625 480.710938 488.640625 Z M 480.710938 488.640625 " fill-opacity="1" fill-rule="nonzero"></path></svg>