<svg xmlns="http://www.w3.org/2000/svg" width="75" height="81" viewBox="0 0 75 81" fill="none"><path d="M64.0417 36.7083V32.9166C64.0417 18.6182 64.0417 11.4671 59.5978 7.02709C55.154 2.58704 48.0067 2.58325 33.7083 2.58325C19.41 2.58325 12.2589 2.58325 7.81883 7.02709C3.37879 11.4709 3.375 18.6182 3.375 32.9166V48.0833C3.375 62.3816 3.375 69.5327 7.81883 73.9728C12.2627 78.4128 19.41 78.4166 33.7083 78.4166" stroke="#FFAA2B" stroke-width="5" stroke-linecap="round" stroke-linejoin="round"></path><path d="M71.6251 78.4165L65.1262 71.9176M18.5417 21.5415H48.8751M18.5417 36.7082H33.7084M67.2912 61.0848C67.3207 62.8106 67.0062 64.525 66.3661 66.1281C65.7261 67.7311 64.7732 69.1906 63.5632 70.4215C62.3531 71.6524 60.9101 72.6301 59.3182 73.2974C57.7264 73.9648 56.0176 74.3084 54.2915 74.3084C52.5654 74.3084 50.8566 73.9648 49.2647 73.2974C47.6729 72.6301 46.2298 71.6524 45.0198 70.4215C43.8097 69.1906 42.8569 67.7311 42.2168 66.1281C41.5767 64.525 41.2623 62.8106 41.2917 61.0848C41.35 57.6755 42.7452 54.4255 45.1768 52.0351C47.6084 49.6447 50.8817 48.3052 54.2915 48.3052C57.7013 48.3052 60.9746 49.6447 63.4062 52.0351C65.8378 54.4255 67.233 57.6755 67.2912 61.0848Z" stroke="#FFAA2B" stroke-width="5" stroke-linecap="round" stroke-linejoin="round"></path></svg>