<svg xmlns="http://www.w3.org/2000/svg" width="85" height="69" viewBox="0 0 85 69" fill="none"><path d="M15.9585 49.6666C15.9585 48.661 16.358 47.6965 17.0691 46.9855C17.7801 46.2744 18.7445 45.8749 19.7502 45.8749H50.0835C51.0891 45.8749 52.0535 46.2744 52.7646 46.9855C53.4757 47.6965 53.8752 48.661 53.8752 49.6666C53.8752 50.6722 53.4757 51.6366 52.7646 52.3477C52.0535 53.0588 51.0891 53.4583 50.0835 53.4583H19.7502C18.7445 53.4583 17.7801 53.0588 17.0691 52.3477C16.358 51.6366 15.9585 50.6722 15.9585 49.6666ZM65.2502 30.7083C66.2558 30.7083 67.2202 31.1077 67.9313 31.8188C68.6424 32.5299 69.0418 33.4943 69.0418 34.4999C69.0418 35.5055 68.6424 36.47 67.9313 37.181C67.2202 37.8921 66.2558 38.2916 65.2502 38.2916H34.9168C33.9112 38.2916 32.9468 37.8921 32.2357 37.181C31.5246 36.47 31.1252 35.5055 31.1252 34.4999C31.1252 33.4943 31.5246 32.5299 32.2357 31.8188C32.9468 31.1077 33.9112 30.7083 34.9168 30.7083H65.2502ZM57.6668 49.6666C57.6668 48.661 58.0663 47.6965 58.7774 46.9855C59.4885 46.2744 60.4529 45.8749 61.4585 45.8749H65.2502C66.2558 45.8749 67.2202 46.2744 67.9313 46.9855C68.6424 47.6965 69.0418 48.661 69.0418 49.6666C69.0418 50.6722 68.6424 51.6366 67.9313 52.3477C67.2202 53.0588 66.2558 53.4583 65.2502 53.4583H61.4585C60.4529 53.4583 59.4885 53.0588 58.7774 52.3477C58.0663 51.6366 57.6668 50.6722 57.6668 49.6666ZM23.5418 30.7083C24.5474 30.7083 25.5119 31.1077 26.2229 31.8188C26.934 32.5299 27.3335 33.4943 27.3335 34.4999C27.3335 35.5055 26.934 36.47 26.2229 37.181C25.5119 37.8921 24.5474 38.2916 23.5418 38.2916H19.7502C18.7445 38.2916 17.7801 37.8921 17.0691 37.181C16.358 36.47 15.9585 35.5055 15.9585 34.4999C15.9585 33.4943 16.358 32.5299 17.0691 31.8188C17.7801 31.1077 18.7445 30.7083 19.7502 30.7083H23.5418Z" fill="#FFAA2B"></path><path fill-rule="evenodd" clip-rule="evenodd" d="M12.1667 0.375C9.14991 0.375 6.25663 1.57343 4.12341 3.70666C1.99018 5.83989 0.791748 8.73316 0.791748 11.75V57.25C0.791748 60.2668 1.99018 63.1601 4.12341 65.2933C6.25663 67.4266 9.14991 68.625 12.1667 68.625H72.8334C75.8503 68.625 78.7435 67.4266 80.8768 65.2933C83.01 63.1601 84.2084 60.2668 84.2084 57.25V11.75C84.2084 8.73316 83.01 5.83989 80.8768 3.70666C78.7435 1.57343 75.8503 0.375 72.8334 0.375H12.1667ZM72.8334 7.95833H12.1667C11.1611 7.95833 10.1967 8.35781 9.48563 9.06889C8.77456 9.77996 8.37508 10.7444 8.37508 11.75V57.25C8.37508 58.2556 8.77456 59.22 9.48563 59.9311C10.1967 60.6422 11.1611 61.0417 12.1667 61.0417H72.8334C73.839 61.0417 74.8035 60.6422 75.5145 59.9311C76.2256 59.22 76.6251 58.2556 76.6251 57.25V11.75C76.6251 10.7444 76.2256 9.77996 75.5145 9.06889C74.8035 8.35781 73.839 7.95833 72.8334 7.95833Z" fill="#FFAA2B"></path></svg>