<svg xmlns="http://www.w3.org/2000/svg" width="91" height="91" viewBox="0 0 91 91" fill="none"><path d="M58.0587 38.0352L40.9962 26.6602C40.6748 26.4457 40.3012 26.3226 39.9153 26.304C39.5293 26.2854 39.1456 26.3719 38.8051 26.5545C38.4645 26.737 38.1799 27.0085 37.9817 27.3402C37.7835 27.6719 37.6791 28.0511 37.6797 28.4375V51.1875C37.6791 51.5739 37.7835 51.9531 37.9817 52.2848C38.1799 52.6165 38.4645 52.888 38.8051 53.0705C39.1456 53.2531 39.5293 53.3396 39.9153 53.321C40.3012 53.3024 40.6748 53.1793 40.9962 52.9648L58.0587 41.5898C58.352 41.3953 58.5926 41.1312 58.759 40.8211C58.9255 40.5109 59.0126 40.1645 59.0126 39.8125C59.0126 39.4605 58.9255 39.1141 58.759 38.8039C58.5926 38.4938 58.352 38.2297 58.0587 38.0352ZM41.9453 47.2027V32.4223L53.0288 39.8125L41.9453 47.2027ZM76.7812 14.9297H14.2188C12.8989 14.9297 11.6331 15.454 10.6998 16.3873C9.7665 17.3206 9.24219 18.5864 9.24219 19.9062V59.7188C9.24219 61.0386 9.7665 62.3044 10.6998 63.2377C11.6331 64.171 12.8989 64.6953 14.2188 64.6953H76.7812C78.1011 64.6953 79.3669 64.171 80.3002 63.2377C81.2335 62.3044 81.7578 61.0386 81.7578 59.7188V19.9062C81.7578 18.5864 81.2335 17.3206 80.3002 16.3873C79.3669 15.454 78.1011 14.9297 76.7812 14.9297ZM77.4922 59.7188C77.4922 59.9073 77.4173 60.0881 77.284 60.2215C77.1506 60.3548 76.9698 60.4297 76.7812 60.4297H14.2188C14.0302 60.4297 13.8494 60.3548 13.716 60.2215C13.5827 60.0881 13.5078 59.9073 13.5078 59.7188V19.9062C13.5078 19.7177 13.5827 19.5369 13.716 19.4035C13.8494 19.2702 14.0302 19.1953 14.2188 19.1953H76.7812C76.9698 19.1953 77.1506 19.2702 77.284 19.4035C77.4173 19.5369 77.4922 19.7177 77.4922 19.9062V59.7188ZM81.7578 73.9375C81.7578 74.5032 81.5331 75.0456 81.1331 75.4456C80.7331 75.8456 80.1907 76.0703 79.625 76.0703H11.375C10.8093 76.0703 10.2669 75.8456 9.86687 75.4456C9.46689 75.0456 9.24219 74.5032 9.24219 73.9375C9.24219 73.3718 9.46689 72.8294 9.86687 72.4294C10.2669 72.0294 10.8093 71.8047 11.375 71.8047H79.625C80.1907 71.8047 80.7331 72.0294 81.1331 72.4294C81.5331 72.8294 81.7578 73.3718 81.7578 73.9375Z" fill="#FFAA2B"></path></svg>