<svg xmlns="http://www.w3.org/2000/svg" width="32" height="32" viewBox="0 0 32 32" fill="none"><path d="M4 18.6667H8C8.70724 18.6667 9.38552 18.9476 9.88562 19.4477C10.3857 19.9478 10.6667 20.6261 10.6667 21.3333V25.3333C10.6667 26.0406 10.3857 26.7189 9.88562 27.219C9.38552 27.719 8.70724 28 8 28H6.66667C5.95942 28 5.28115 27.719 4.78105 27.219C4.28095 26.7189 4 26.0406 4 25.3333V16C4 12.8174 5.26428 9.76516 7.51472 7.51472C9.76516 5.26428 12.8174 4 16 4C19.1826 4 22.2348 5.26428 24.4853 7.51472C26.7357 9.76516 28 12.8174 28 16V25.3333C28 26.0406 27.719 26.7189 27.219 27.219C26.7189 27.719 26.0406 28 25.3333 28H24C23.2928 28 22.6145 27.719 22.1144 27.219C21.6143 26.7189 21.3333 26.0406 21.3333 25.3333V21.3333C21.3333 20.6261 21.6143 19.9478 22.1144 19.4477C22.6145 18.9476 23.2928 18.6667 24 18.6667H28" stroke="#FBBF24" stroke-width="2.66667" stroke-linecap="round" stroke-linejoin="round"></path></svg>