<svg xmlns="http://www.w3.org/2000/svg" width="57" height="57" viewBox="0 0 57 57" fill="none"><path d="M28.5 0.9375C23.0487 0.9375 17.7197 2.55401 13.1871 5.58262C8.65448 8.61123 5.12172 12.9159 3.03558 17.9523C0.949442 22.9887 0.403613 28.5306 1.46712 33.8772C2.53062 39.2238 5.1557 44.1349 9.01038 47.9896C12.8651 51.8443 17.7762 54.4694 23.1228 55.5329C28.4694 56.5964 34.0113 56.0506 39.0477 53.9644C44.0841 51.8783 48.3888 48.3455 51.4174 43.8129C54.446 39.2803 56.0625 33.9513 56.0625 28.5C56.0625 21.19 53.1586 14.1793 47.9896 9.01037C42.8207 3.8414 35.81 0.9375 28.5 0.9375ZM24.5625 39.5053L14.7188 29.6616L17.8491 26.5312L24.5625 33.2447L39.1509 18.6562L42.2931 21.7787L24.5625 39.5053Z" fill="#10DD21"></path></svg>