<svg xmlns="http://www.w3.org/2000/svg" width="69" height="60" viewBox="0 0 69 60" fill="none"><path d="M4 26C1.79086 26 1.93129e-07 27.7909 0 30C-1.93129e-07 32.2091 1.79086 34 4 34L4 30L4 26ZM67.8284 32.8284C69.3905 31.2663 69.3905 28.7337 67.8284 27.1716L42.3726 1.71573C40.8105 0.153634 38.2778 0.153634 36.7157 1.71573C35.1536 3.27783 35.1536 5.81049 36.7157 7.37259L59.3431 30L36.7157 52.6274C35.1536 54.1895 35.1536 56.7222 36.7157 58.2843C38.2778 59.8464 40.8105 59.8464 42.3726 58.2843L67.8284 32.8284ZM4 30L4 34L65 34L65 30L65 26L4 26L4 30Z" fill="white"></path></svg>