<svg xmlns="http://www.w3.org/2000/svg" width="49" height="49" viewBox="0 0 49 49" fill="none"><rect x="0.810059" y="0.25" width="48" height="48" rx="24" fill="#EFF6FF"></rect><path d="M24.8101 34.25C30.3329 34.25 34.8101 29.7728 34.8101 24.25C34.8101 18.7272 30.3329 14.25 24.8101 14.25C19.2872 14.25 14.8101 18.7272 14.8101 24.25C14.8101 29.7728 19.2872 34.25 24.8101 34.25Z" stroke="#457B9D" stroke-width="2" stroke-linecap="round" stroke-linejoin="round"></path><path d="M24.8101 14.25C22.2423 16.9462 20.8101 20.5267 20.8101 24.25C20.8101 27.9733 22.2423 31.5538 24.8101 34.25C27.3778 31.5538 28.8101 27.9733 28.8101 24.25C28.8101 20.5267 27.3778 16.9462 24.8101 14.25Z" stroke="#457B9D" stroke-width="2" stroke-linecap="round" stroke-linejoin="round"></path><path d="M14.8101 24.25H34.8101" stroke="#457B9D" stroke-width="2" stroke-linecap="round" stroke-linejoin="round"></path></svg>