<svg xmlns="http://www.w3.org/2000/svg" width="49" height="48" viewBox="0 0 49 48" fill="none"><rect x="0.810059" width="48" height="48" rx="24" fill="#EFF6FF"></rect><path d="M34.81 28.92V31.92C34.8111 32.1985 34.7541 32.4741 34.6425 32.7293C34.5309 32.9845 34.3673 33.2136 34.1621 33.4018C33.9568 33.5901 33.7146 33.7335 33.4507 33.8227C33.1869 33.9119 32.9074 33.945 32.63 33.92C29.5528 33.5856 26.597 32.5341 24 30.85C21.5838 29.3146 19.5353 27.2661 18 24.85C16.31 22.2412 15.2582 19.271 14.93 16.18C14.905 15.9034 14.9379 15.6247 15.0265 15.3616C15.1151 15.0985 15.2576 14.8567 15.4448 14.6516C15.632 14.4465 15.8598 14.2827 16.1138 14.1705C16.3678 14.0583 16.6423 14.0002 16.92 14H19.92C20.4053 13.9952 20.8758 14.1671 21.2438 14.4835C21.6117 14.8 21.8521 15.2394 21.92 15.72C22.0466 16.68 22.2814 17.6227 22.62 18.53C22.7545 18.8879 22.7837 19.2769 22.7039 19.6509C22.6241 20.0248 22.4389 20.3681 22.17 20.64L20.9 21.91C22.3235 24.4135 24.3964 26.4864 26.9 27.91L28.17 26.64C28.4419 26.3711 28.7851 26.1858 29.1591 26.1061C29.5331 26.0263 29.9221 26.0554 30.28 26.19C31.1873 26.5285 32.1299 26.7634 33.09 26.89C33.5758 26.9585 34.0194 27.2032 34.3365 27.5775C34.6537 27.9518 34.8222 28.4296 34.81 28.92Z" stroke="#457B9D" stroke-width="2" stroke-linecap="round" stroke-linejoin="round"></path></svg>