<svg xmlns="http://www.w3.org/2000/svg" width="49" height="49" viewBox="0 0 49 49" fill="none"><rect x="0.810059" y="0.25" width="48" height="48" rx="24" fill="#EFF6FF"></rect><path d="M34.8101 22.25V18.25C34.8101 17.7196 34.5993 17.2109 34.2243 16.8358C33.8492 16.4607 33.3405 16.25 32.8101 16.25H16.8101C16.2796 16.25 15.7709 16.4607 15.3958 16.8358C15.0208 17.2109 14.8101 17.7196 14.8101 18.25V30.25C14.8101 31.35 15.7101 32.25 16.8101 32.25H26.8101" stroke="#457B9D" stroke-width="2" stroke-linecap="round" stroke-linejoin="round"></path><path d="M34.8101 22.25L26.5701 27.51C26.2637 27.6893 25.9151 27.7838 25.5601 27.7838C25.2051 27.7838 24.8565 27.6893 24.5501 27.51L14.8101 22.25" stroke="#457B9D" stroke-width="2" stroke-linecap="round" stroke-linejoin="round"></path><path d="M28.8101 31.25H34.8101" stroke="#457B9D" stroke-width="2" stroke-linecap="round" stroke-linejoin="round"></path><path d="M31.8101 28.25V34.25" stroke="#457B9D" stroke-width="2" stroke-linecap="round" stroke-linejoin="round"></path></svg>