<svg xmlns="http://www.w3.org/2000/svg" width="49" height="49" viewBox="0 0 49 49" fill="none"><rect x="0.810059" y="0.5" width="48" height="48" rx="24" fill="#EFF6FF"></rect><path d="M24.8101 20.5C29.7806 20.5 33.8101 19.1569 33.8101 17.5C33.8101 15.8431 29.7806 14.5 24.8101 14.5C19.8395 14.5 15.8101 15.8431 15.8101 17.5C15.8101 19.1569 19.8395 20.5 24.8101 20.5Z" stroke="#457B9D" stroke-width="2" stroke-linecap="round" stroke-linejoin="round"></path><path d="M15.8101 24.5C15.8101 25.2956 16.7583 26.0587 18.4461 26.6213C20.1339 27.1839 22.4231 27.5 24.8101 27.5C27.197 27.5 29.4862 27.1839 31.174 26.6213C32.8618 26.0587 33.8101 25.2956 33.8101 24.5" stroke="#457B9D" stroke-width="2" stroke-linecap="round" stroke-linejoin="round"></path><path d="M15.8101 17.5V31.5C15.8101 32.2956 16.7583 33.0587 18.4461 33.6213C20.1339 34.1839 22.4231 34.5 24.8101 34.5C27.197 34.5 29.4862 34.1839 31.174 33.6213C32.8618 33.0587 33.8101 32.2956 33.8101 31.5V17.5" stroke="#457B9D" stroke-width="2" stroke-linecap="round" stroke-linejoin="round"></path></svg>