<svg xmlns="http://www.w3.org/2000/svg" xmlns:xlink="http://www.w3.org/1999/xlink" width="80" zoomAndPan="magnify" viewBox="0 0 60 66" height="88" preserveAspectRatio="xMidYMid meet"><rect x="-6" width="72" fill="#ffffff" y="-6.6" height="79.2" fill-opacity="1"></rect><rect x="-6" width="72" fill="#ffffff" y="-6.6" height="79.2" fill-opacity="1"></rect><path fill="#ffffff" d="M 24 21 L 36 21 C 36.394531 21 36.785156 21.039062 37.171875 21.117188 C 37.558594 21.191406 37.933594 21.304688 38.296875 21.457031 C 38.660156 21.609375 39.003906 21.792969 39.332031 22.011719 C 39.660156 22.230469 39.964844 22.480469 40.242188 22.757812 C 40.519531 23.035156 40.769531 23.339844 40.988281 23.667969 C 41.207031 23.996094 41.390625 24.339844 41.542969 24.703125 C 41.695312 25.066406 41.808594 25.441406 41.882812 25.828125 C 41.960938 26.214844 42 26.605469 42 27 L 42 39 C 42 39.394531 41.960938 39.785156 41.882812 40.171875 C 41.808594 40.558594 41.695312 40.933594 41.542969 41.296875 C 41.390625 41.660156 41.207031 42.003906 40.988281 42.332031 C 40.769531 42.660156 40.519531 42.964844 40.242188 43.242188 C 39.964844 43.519531 39.660156 43.769531 39.332031 43.988281 C 39.003906 44.207031 38.660156 44.390625 38.296875 44.542969 C 37.933594 44.695312 37.558594 44.808594 37.171875 44.882812 C 36.785156 44.960938 36.394531 45 36 45 L 24 45 C 23.605469 45 23.214844 44.960938 22.828125 44.882812 C 22.441406 44.808594 22.066406 44.695312 21.703125 44.542969 C 21.339844 44.390625 20.996094 44.207031 20.667969 43.988281 C 20.339844 43.769531 20.035156 43.519531 19.757812 43.242188 C 19.480469 42.964844 19.230469 42.660156 19.011719 42.332031 C 18.792969 42.003906 18.609375 41.660156 18.457031 41.296875 C 18.304688 40.933594 18.191406 40.558594 18.117188 40.171875 C 18.039062 39.785156 18 39.394531 18 39 L 18 27 C 18 26.605469 18.039062 26.214844 18.117188 25.828125 C 18.191406 25.441406 18.304688 25.066406 18.457031 24.703125 C 18.609375 24.339844 18.792969 23.996094 19.011719 23.667969 C 19.230469 23.339844 19.480469 23.035156 19.757812 22.757812 C 20.035156 22.480469 20.339844 22.230469 20.667969 22.011719 C 20.996094 21.792969 21.339844 21.609375 21.703125 21.457031 C 22.066406 21.304688 22.441406 21.191406 22.828125 21.117188 C 23.214844 21.039062 23.605469 21 24 21 Z M 24 21 " fill-opacity="1" fill-rule="nonzero"></path><path stroke-linecap="round" transform="matrix(0.5, 0, 0, 0.5, 17.999999, 21.000001)" fill="none" stroke-linejoin="round" d="M 24.000001 33.999996 C 29.523438 33.999996 34 29.523434 34 23.999997 C 34 18.47656 29.523438 13.999997 24.000001 13.999997 C 18.476563 13.999997 14.000001 18.47656 14.000001 23.999997 C 14.000001 29.523434 18.476563 33.999996 24.000001 33.999996 Z M 24.000001 33.999996 " stroke="#ffffff" stroke-width="2" stroke-opacity="1" stroke-miterlimit="4"></path><path stroke-linecap="round" transform="matrix(0.5, 0, 0, 0.5, 17.999999, 21.000001)" fill="none" stroke-linejoin="round" d="M 24.000001 29.999997 C 27.3125 29.999997 30 27.312497 30 23.999997 C 30 20.687497 27.3125 17.999997 24.000001 17.999997 C 20.687501 17.999997 18.000001 20.687497 18.000001 23.999997 C 18.000001 27.312497 20.687501 29.999997 24.000001 29.999997 Z M 24.000001 29.999997 " stroke="#ffffff" stroke-width="2" stroke-opacity="1" stroke-miterlimit="4"></path><path stroke-linecap="round" transform="matrix(0.5, 0, 0, 0.5, 17.999999, 21.000001)" fill="none" stroke-linejoin="round" d="M 24.000001 25.999997 C 25.101563 25.999997 26.000001 25.101559 26.000001 23.999997 C 26.000001 22.898434 25.101563 21.999997 24.000001 21.999997 C 22.898438 21.999997 22.000001 22.898434 22.000001 23.999997 C 22.000001 25.101559 22.898438 25.999997 24.000001 25.999997 Z M 24.000001 25.999997 " stroke="#ffffff" stroke-width="2" stroke-opacity="1" stroke-miterlimit="4"></path></svg>