<svg xmlns="http://www.w3.org/2000/svg" width="48" height="43" viewBox="0 0 48 43" fill="none"><path d="M33 42V37.3333C33 34.858 32.0367 32.484 30.3221 30.7337C28.6075 28.9833 26.282 28 23.8571 28H10.1429C7.71802 28 5.3925 28.9833 3.67788 30.7337C1.96326 32.484 1 34.858 1 37.3333V42" stroke="#FBBD23" stroke-width="2" stroke-linecap="round" stroke-linejoin="round"></path><path d="M17 19C21.9706 19 26 14.9706 26 10C26 5.02944 21.9706 1 17 1C12.0294 1 8 5.02944 8 10C8 14.9706 12.0294 19 17 19Z" stroke="#FBBD23" stroke-width="2" stroke-linecap="round" stroke-linejoin="round"></path><path d="M47 42V37.23C46.9985 35.1162 46.3102 33.0628 45.0432 31.3922C43.7762 29.7216 42.0023 28.5284 40 28" stroke="#FBBD23" stroke-width="2" stroke-linecap="round" stroke-linejoin="round"></path><path d="M33 1C35.0024 1.51167 36.7772 2.67389 38.0446 4.30343C39.3121 5.93297 40 7.93715 40 10C40 12.0628 39.3121 14.067 38.0446 15.6966C36.7772 17.3261 35.0024 18.4883 33 19" stroke="#FBBD23" stroke-width="2" stroke-linecap="round" stroke-linejoin="round"></path></svg>