<svg xmlns="http://www.w3.org/2000/svg" width="41" height="41" viewBox="0 0 41 41" fill="none"><rect x="0.401367" y="0.210449" width="40" height="40" rx="20" fill="#50A7DD"></rect><path d="M17.9017 20.2103L19.5684 21.877L22.9017 18.5437M16.9309 14.1245C17.5287 14.0768 18.0961 13.8417 18.5526 13.4528C19.0683 13.013 19.7239 12.7715 20.4017 12.7715C21.0795 12.7715 21.7351 13.013 22.2509 13.4528C22.7073 13.8417 23.2748 14.0768 23.8726 14.1245C24.5482 14.1782 25.1825 14.471 25.6618 14.9503C26.141 15.4295 26.4338 16.0639 26.4876 16.7395C26.5353 17.3372 26.7703 17.9047 27.1592 18.3612C27.599 18.8769 27.8406 19.5325 27.8406 20.2103C27.8406 20.8881 27.599 21.5437 27.1592 22.0595C26.7703 22.5159 26.5353 23.0834 26.4876 23.6812C26.4338 24.3568 26.141 24.9911 25.6618 25.4704C25.1825 25.9496 24.5482 26.2424 23.8726 26.2962C23.2748 26.3439 22.7073 26.5789 22.2509 26.9678C21.7351 27.4076 21.0795 27.6492 20.4017 27.6492C19.7239 27.6492 19.0683 27.4076 18.5526 26.9678C18.0961 26.5789 17.5287 26.3439 16.9309 26.2962C16.2553 26.2424 15.6209 25.9496 15.1417 25.4704C14.6624 24.9911 14.3696 24.3568 14.3159 23.6812C14.2682 23.0834 14.0331 22.5159 13.6442 22.0595C13.2045 21.5437 12.9629 20.8881 12.9629 20.2103C12.9629 19.5325 13.2045 18.8769 13.6442 18.3612C14.0331 17.9047 14.2682 17.3372 14.3159 16.7395C14.3696 16.0639 14.6624 15.4295 15.1417 14.9503C15.6209 14.471 16.2553 14.1782 16.9309 14.1245Z" stroke="white" stroke-width="1.66667" stroke-linecap="round" stroke-linejoin="round"></path></svg>