<svg xmlns="http://www.w3.org/2000/svg" width="64" height="64" viewBox="0 0 64 64" fill="none"><circle cx="20" cy="20" r="8" stroke="#50A7DD" stroke-width="2"></circle><path d="M10 36c0-5.5 4.5-10 10-10s10 4.5 10 10v4H10v-4z" stroke="#50A7DD" stroke-width="2"></path><circle cx="44" cy="20" r="6" stroke="#50A7DD" stroke-width="2"></circle><path d="M44 14v2m0 8v2m6-6h2m-14 0h2m4.24-4.24l1.42 1.42m0 5.66l-1.42 1.42m-5.66-1.42l-1.42 1.42m0-5.66l1.42 1.42" stroke="#50A7DD" stroke-width="2"></path><rect x="12" y="44" width="8" height="12" fill="#50A7DD"></rect><rect x="28" y="40" width="8" height="16" fill="#50A7DD"></rect><rect x="44" y="36" width="8" height="20" fill="#50A7DD"></rect><path d="M8 56h48" stroke="#50A7DD" stroke-width="2"></path></svg>