<svg xmlns="http://www.w3.org/2000/svg" width="64" height="64" viewBox="0 0 64 64" fill="none"><path d="M12 14h40a4 4 0 0 1 4 4v20a4 4 0 0 1-4 4H28l-8 6v-6H12a4 4 0 0 1-4-4V18a4 4 0 0 1 4-4z" stroke="#50A7DD" stroke-width="2" fill="none"></path><circle cx="32" cy="26" r="6" stroke="#50A7DD" stroke-width="2"></circle><circle cx="30" cy="24" r="1.2" fill="#50A7DD"></circle><circle cx="34" cy="24" r="1.2" fill="#50A7DD"></circle><path d="M30 28c.5 1 3.5 1 4 0" stroke="#50A7DD" stroke-width="1.5" fill="none"></path><path d="M18 32a14 14 0 1 1 28 0" stroke="#50A7DD" stroke-width="2" fill="none"></path><path d="M18 32v4a2 2 0 0 0 2 2h2" stroke="#50A7DD" stroke-width="2" fill="none"></path><path d="M46 32v4a2 2 0 0 1-2 2h-2" stroke="#50A7DD" stroke-width="2" fill="none"></path></svg>