<svg xmlns="http://www.w3.org/2000/svg" width="26" height="25" viewBox="0 0 26 25" fill="none"><path d="M11.6599 2.72294C12.0199 1.61774 13.5835 1.61774 13.9423 2.72294L15.7651 8.33174C15.8435 8.57233 15.996 8.78196 16.2008 8.93067C16.4055 9.07938 16.652 9.15956 16.9051 9.15974H22.8031C23.9659 9.15974 24.4483 10.6477 23.5087 11.3317L18.7375 14.7973C18.5325 14.9463 18.38 15.1564 18.3018 15.3974C18.2235 15.6384 18.2236 15.898 18.3019 16.1389L20.1235 21.7477C20.4835 22.8541 19.2175 23.7733 18.2779 23.0893L13.5067 19.6237C13.3016 19.4747 13.0546 19.3944 12.8011 19.3944C12.5476 19.3944 12.3006 19.4747 12.0955 19.6237L7.32429 23.0893C6.38469 23.7733 5.11869 22.8529 5.47869 21.7477L7.30029 16.1389C7.37863 15.898 7.37867 15.6384 7.30042 15.3974C7.22217 15.1564 7.06964 14.9463 6.86469 14.7973L2.09349 11.3317C1.15269 10.6477 1.63749 9.15974 2.79909 9.15974H8.69589C8.94915 9.15981 9.19593 9.07975 9.40092 8.93102C9.60591 8.78229 9.75858 8.57252 9.83709 8.33174L11.6599 2.72294Z" stroke="#D1D5DB" stroke-width="2.4" stroke-linecap="round" stroke-linejoin="round"></path></svg>