<svg xmlns="http://www.w3.org/2000/svg" width="92" height="94" viewBox="0 0 92 94" fill="none"><g filter="url(#filter0_d_1904_1262)"><rect x="22" y="16" width="48" height="48" rx="24" fill="#50A7DD"></rect><path d="M49.9688 43.2422V45H42.1875V43.5L45.8672 39.5547C46.237 39.1432 46.5286 38.7812 46.7422 38.4688C46.9557 38.151 47.1094 37.8672 47.2031 37.6172C47.3021 37.362 47.3516 37.1198 47.3516 36.8906C47.3516 36.5469 47.2943 36.2526 47.1797 36.0078C47.0651 35.7578 46.8958 35.5651 46.6719 35.4297C46.4531 35.2943 46.1823 35.2266 45.8594 35.2266C45.5156 35.2266 45.2188 35.3099 44.9688 35.4766C44.724 35.6432 44.5365 35.875 44.4062 36.1719C44.2812 36.4688 44.2188 36.8047 44.2188 37.1797H41.9609C41.9609 36.5026 42.1224 35.8828 42.4453 35.3203C42.7682 34.7526 43.224 34.3021 43.8125 33.9688C44.401 33.6302 45.099 33.4609 45.9062 33.4609C46.7031 33.4609 47.375 33.5911 47.9219 33.8516C48.474 34.1068 48.8906 34.4766 49.1719 34.9609C49.4583 35.4401 49.6016 36.013 49.6016 36.6797C49.6016 37.0547 49.5417 37.4219 49.4219 37.7812C49.3021 38.1354 49.1302 38.4896 48.9062 38.8438C48.6875 39.1927 48.4219 39.5469 48.1094 39.9062C47.7969 40.2656 47.4505 40.638 47.0703 41.0234L45.0938 43.2422H49.9688Z" fill="white"></path></g><defs><filter id="filter0_d_1904_1262" x="0" y="2" width="92" height="92" filterUnits="userSpaceOnUse" color-interpolation-filters="sRGB"></filter></defs></svg>