<svg xmlns="http://www.w3.org/2000/svg" width="92" height="94" viewBox="0 0 92 94" fill="none"><g filter="url(#filter0_d_1904_1277)"><rect x="22" y="16" width="48" height="48" rx="24" fill="#50A7DD"></rect><path d="M44.4922 38.3359H45.6953C46.0807 38.3359 46.3984 38.2708 46.6484 38.1406C46.8984 38.0052 47.0833 37.8177 47.2031 37.5781C47.3281 37.3333 47.3906 37.0495 47.3906 36.7266C47.3906 36.4349 47.3333 36.1771 47.2188 35.9531C47.1094 35.724 46.9401 35.5469 46.7109 35.4219C46.4818 35.2917 46.1927 35.2266 45.8438 35.2266C45.5677 35.2266 45.3125 35.2812 45.0781 35.3906C44.8438 35.5 44.6562 35.6536 44.5156 35.8516C44.375 36.0495 44.3047 36.2891 44.3047 36.5703H42.0469C42.0469 35.9453 42.2135 35.401 42.5469 34.9375C42.8854 34.474 43.3385 34.112 43.9062 33.8516C44.474 33.5911 45.099 33.4609 45.7812 33.4609C46.5521 33.4609 47.2266 33.5859 47.8047 33.8359C48.3828 34.0807 48.8333 34.4427 49.1562 34.9219C49.4792 35.401 49.6406 35.9948 49.6406 36.7031C49.6406 37.0625 49.5573 37.4115 49.3906 37.75C49.224 38.0833 48.9844 38.3854 48.6719 38.6562C48.3646 38.9219 47.9896 39.1354 47.5469 39.2969C47.1042 39.4531 46.6068 39.5312 46.0547 39.5312H44.4922V38.3359ZM44.4922 40.0469V38.8828H46.0547C46.6745 38.8828 47.2188 38.9531 47.6875 39.0938C48.1562 39.2344 48.5495 39.4375 48.8672 39.7031C49.1849 39.9635 49.4245 40.2734 49.5859 40.6328C49.7474 40.987 49.8281 41.3802 49.8281 41.8125C49.8281 42.3438 49.7266 42.8177 49.5234 43.2344C49.3203 43.6458 49.0339 43.9948 48.6641 44.2812C48.2995 44.5677 47.8724 44.7865 47.3828 44.9375C46.8932 45.0833 46.3594 45.1562 45.7812 45.1562C45.3021 45.1562 44.8307 45.0911 44.3672 44.9609C43.9089 44.8255 43.4922 44.625 43.1172 44.3594C42.7474 44.0885 42.4505 43.75 42.2266 43.3438C42.0078 42.9323 41.8984 42.4453 41.8984 41.8828H44.1562C44.1562 42.1745 44.2292 42.4349 44.375 42.6641C44.5208 42.8932 44.7214 43.0729 44.9766 43.2031C45.237 43.3333 45.526 43.3984 45.8438 43.3984C46.2031 43.3984 46.5104 43.3333 46.7656 43.2031C47.026 43.0677 47.224 42.8802 47.3594 42.6406C47.5 42.3958 47.5703 42.112 47.5703 41.7891C47.5703 41.3724 47.4948 41.0391 47.3438 40.7891C47.1927 40.5339 46.9766 40.3464 46.6953 40.2266C46.4141 40.1068 46.0807 40.0469 45.6953 40.0469H44.4922Z" fill="white"></path></g><defs><filter id="filter0_d_1904_1277" x="0" y="2" width="92" height="92" filterUnits="userSpaceOnUse" color-interpolation-filters="sRGB"></filter></defs></svg>