<svg xmlns="http://www.w3.org/2000/svg" width="42" height="53" viewBox="0 0 42 53" fill="none"><rect x="-0.0078125" y="0.935303" width="42" height="52" rx="21" fill="#FFEDD5"></rect><path d="M29.0234 36.1853C29.2578 36.1853 29.4922 36.4197 29.4922 36.6541V37.4353H11.9922V36.6541C11.9922 36.4197 12.1875 36.1853 12.4609 36.1853H13.2422V18.3728C13.2422 17.865 13.6328 17.4353 14.1797 17.4353H27.3047C27.8125 17.4353 28.2422 17.865 28.2422 18.3728V36.1853H29.0234ZM16.9922 20.4041V21.9666C16.9922 22.24 17.1875 22.4353 17.4609 22.4353H19.0234C19.2578 22.4353 19.4922 22.24 19.4922 21.9666V20.4041C19.4922 20.1697 19.2578 19.9353 19.0234 19.9353H17.4609C17.1875 19.9353 16.9922 20.1697 16.9922 20.4041ZM16.9922 24.1541V25.7166C16.9922 25.99 17.1875 26.1853 17.4609 26.1853H19.0234C19.2578 26.1853 19.4922 25.99 19.4922 25.7166V24.1541C19.4922 23.9197 19.2578 23.6853 19.0234 23.6853H17.4609C17.1875 23.6853 16.9922 23.9197 16.9922 24.1541ZM19.0234 29.9353C19.2578 29.9353 19.4922 29.74 19.4922 29.4666V27.9041C19.4922 27.6697 19.2578 27.4353 19.0234 27.4353H17.4609C17.1875 27.4353 16.9922 27.6697 16.9922 27.9041V29.4666C16.9922 29.74 17.1875 29.9353 17.4609 29.9353H19.0234ZM21.9922 36.1853V32.9041C21.9922 32.6697 21.7578 32.4353 21.5234 32.4353H19.9609C19.6875 32.4353 19.4922 32.6697 19.4922 32.9041V36.1853H21.9922ZM24.4922 29.4666V27.9041C24.4922 27.6697 24.2578 27.4353 24.0234 27.4353H22.4609C22.1875 27.4353 21.9922 27.6697 21.9922 27.9041V29.4666C21.9922 29.74 22.1875 29.9353 22.4609 29.9353H24.0234C24.2578 29.9353 24.4922 29.74 24.4922 29.4666ZM24.4922 25.7166V24.1541C24.4922 23.9197 24.2578 23.6853 24.0234 23.6853H22.4609C22.1875 23.6853 21.9922 23.9197 21.9922 24.1541V25.7166C21.9922 25.99 22.1875 26.1853 22.4609 26.1853H24.0234C24.2578 26.1853 24.4922 25.99 24.4922 25.7166ZM24.4922 21.9666V20.4041C24.4922 20.1697 24.2578 19.9353 24.0234 19.9353H22.4609C22.1875 19.9353 21.9922 20.1697 21.9922 20.4041V21.9666C21.9922 22.24 22.1875 22.4353 22.4609 22.4353H24.0234C24.2578 22.4353 24.4922 22.24 24.4922 21.9666Z" fill="#FFA72B"></path></svg>