<svg xmlns="http://www.w3.org/2000/svg" width="44" height="53" viewBox="0 0 44 53" fill="none"><rect x="-0.0078125" y="0.935303" width="44" height="52" rx="22" fill="#FFEDD5"></rect><path d="M30.1953 20.7166C30.8984 21.0291 31.3672 21.6931 31.3672 22.4353C31.3672 31.1072 26.0547 35.9119 22.6953 37.3181C22.2266 37.5134 21.7188 37.5134 21.25 37.3181C17.0703 35.5603 12.6172 30.2087 12.6172 22.4353C12.6172 21.6931 13.0469 21.0291 13.75 20.7166L21.25 17.5916C21.4844 17.5134 21.7188 17.4744 21.9922 17.4744C22.2266 17.4744 22.4609 17.5134 22.6953 17.5916L30.1953 20.7166ZM21.9922 34.8962C25.625 33.0603 28.7109 28.7634 28.8281 22.865L21.9922 20.0134V34.8962Z" fill="#FFA72B"></path></svg>