<svg xmlns="http://www.w3.org/2000/svg" width="20" height="21" viewBox="0 0 20 21" fill="none"><g clip-path="url(#clip0_1_75)"><path d="M9.60416 2.66249C9.64068 2.58871 9.69709 2.5266 9.76704 2.48318C9.83698 2.43976 9.91767 2.41675 9.99999 2.41675C10.0823 2.41675 10.163 2.43976 10.233 2.48318C10.3029 2.5266 10.3593 2.58871 10.3958 2.66249L12.3208 6.56166C12.4476 6.8183 12.6348 7.04033 12.8663 7.2087C13.0979 7.37707 13.3668 7.48675 13.65 7.52833L17.955 8.15833C18.0366 8.17015 18.1132 8.20455 18.1762 8.25766C18.2393 8.31076 18.2862 8.38045 18.3117 8.45883C18.3372 8.53721 18.3402 8.62116 18.3205 8.70119C18.3007 8.78121 18.259 8.85412 18.2 8.91166L15.0867 11.9433C14.8813 12.1434 14.7277 12.3904 14.639 12.663C14.5503 12.9356 14.5292 13.2257 14.5775 13.5083L15.3125 17.7917C15.3269 17.8732 15.3181 17.9571 15.2871 18.0339C15.2561 18.1107 15.2041 18.1772 15.1371 18.2258C15.0701 18.2745 14.9908 18.3033 14.9082 18.3091C14.8256 18.3148 14.7431 18.2972 14.67 18.2583L10.8217 16.235C10.5681 16.1018 10.286 16.0323 9.99958 16.0323C9.71318 16.0323 9.43106 16.1018 9.17749 16.235L5.32999 18.2583C5.25694 18.297 5.17449 18.3144 5.09204 18.3085C5.00958 18.3027 4.93043 18.2738 4.86357 18.2252C4.79672 18.1766 4.74485 18.1101 4.71387 18.0335C4.68289 17.9569 4.67404 17.8731 4.68833 17.7917L5.42249 13.5092C5.47099 13.2264 5.44998 12.9362 5.36128 12.6634C5.27257 12.3906 5.11883 12.1435 4.91333 11.9433L1.79999 8.91249C1.74049 8.85502 1.69832 8.78199 1.6783 8.70172C1.65827 8.62145 1.66119 8.53717 1.68673 8.45849C1.71226 8.3798 1.75938 8.30986 1.82272 8.25665C1.88607 8.20343 1.96308 8.16907 2.04499 8.15749L6.34916 7.52833C6.63271 7.48708 6.90199 7.37754 7.13381 7.20915C7.36564 7.04076 7.55308 6.81855 7.67999 6.56166L9.60416 2.66249Z" fill="#F9A52F" stroke="#F9A52F" stroke-width="2" stroke-linecap="round" stroke-linejoin="round"></path></g><defs><clipPath id="clip0_1_75"><rect width="20" height="20" fill="white" transform="translate(0 0.75)"></rect></clipPath></defs></svg>