<svg xmlns="http://www.w3.org/2000/svg" width="48" height="49" viewBox="0 0 48 49" fill="none"><g clip-path="url(#clip0_1_55)"><path d="M32 6.25C30.9391 6.25 29.9217 6.67143 29.1716 7.42157C28.4214 8.17172 28 9.18913 28 10.25V22.25C28 23.3109 28.4214 24.3283 29.1716 25.0784C29.9217 25.8286 30.9391 26.25 32 26.25C32.5304 26.25 33.0391 26.4607 33.4142 26.8358C33.7893 27.2109 34 27.7196 34 28.25V30.25C34 31.3109 33.5786 32.3283 32.8284 33.0784C32.0783 33.8286 31.0609 34.25 30 34.25C29.4696 34.25 28.9609 34.4607 28.5858 34.8358C28.2107 35.2109 28 35.7196 28 36.25V40.25C28 40.7804 28.2107 41.2891 28.5858 41.6642C28.9609 42.0393 29.4696 42.25 30 42.25C33.1826 42.25 36.2348 40.9857 38.4853 38.7353C40.7357 36.4848 42 33.4326 42 30.25V10.25C42 9.18913 41.5786 8.17172 40.8284 7.42157C40.0783 6.67143 39.0609 6.25 38 6.25H32Z" stroke="#F9A52F" stroke-width="2" stroke-linecap="round" stroke-linejoin="round"></path><path d="M10 6.25C8.93913 6.25 7.92172 6.67143 7.17157 7.42157C6.42143 8.17172 6 9.18913 6 10.25V22.25C6 23.3109 6.42143 24.3283 7.17157 25.0784C7.92172 25.8286 8.93913 26.25 10 26.25C10.5304 26.25 11.0391 26.4607 11.4142 26.8358C11.7893 27.2109 12 27.7196 12 28.25V30.25C12 31.3109 11.5786 32.3283 10.8284 33.0784C10.0783 33.8286 9.06087 34.25 8 34.25C7.46957 34.25 6.96086 34.4607 6.58579 34.8358C6.21071 35.2109 6 35.7196 6 36.25V40.25C6 40.7804 6.21071 41.2891 6.58579 41.6642C6.96086 42.0393 7.46957 42.25 8 42.25C11.1826 42.25 14.2348 40.9857 16.4853 38.7353C18.7357 36.4848 20 33.4326 20 30.25V10.25C20 9.18913 19.5786 8.17172 18.8284 7.42157C18.0783 6.67143 17.0609 6.25 16 6.25H10Z" stroke="#F9A52F" stroke-width="2" stroke-linecap="round" stroke-linejoin="round"></path></g><defs><clipPath id="clip0_1_55"><rect width="48" height="48" fill="white" transform="translate(0 0.25)"></rect></clipPath></defs></svg>