<svg xmlns="http://www.w3.org/2000/svg" width="16" height="16" viewBox="0 0 16 16" fill="none"><path d="M15.7422 7.9353C15.7422 12.2166 12.2422 15.6853 7.99219 15.6853C3.71094 15.6853 0.242188 12.2166 0.242188 7.9353C0.242188 3.6853 3.71094 0.185303 7.99219 0.185303C12.2422 0.185303 15.7422 3.6853 15.7422 7.9353ZM7.08594 12.0603L12.8359 6.3103C13.0234 6.1228 13.0234 5.77905 12.8359 5.59155L12.1172 4.90405C11.9297 4.6853 11.6172 4.6853 11.4297 4.90405L6.74219 9.59155L4.52344 7.40405C4.33594 7.1853 4.02344 7.1853 3.83594 7.40405L3.11719 8.09155C2.92969 8.27905 2.92969 8.6228 3.11719 8.8103L6.36719 12.0603C6.55469 12.2478 6.89844 12.2478 7.08594 12.0603Z" fill="#22C55E"></path></svg>