<svg xmlns="http://www.w3.org/2000/svg" width="20" height="17" viewBox="0 0 20 17" fill="none"><path d="M18.7734 14.7166C19.3359 15.7166 18.6172 16.9353 17.4609 16.9353H2.49219C1.33594 16.9353 0.617188 15.6853 1.17969 14.7166L8.67969 1.6853C9.24219 0.685303 10.7109 0.716553 11.2734 1.6853L18.7734 14.7166ZM9.99219 11.9978C9.17969 11.9978 8.55469 12.6541 8.55469 13.4353C8.55469 14.2478 9.17969 14.8728 9.99219 14.8728C10.7734 14.8728 11.4297 14.2478 11.4297 13.4353C11.4297 12.6541 10.7734 11.9978 9.99219 11.9978ZM8.61719 6.84155L8.83594 11.0916C8.86719 11.3103 9.02344 11.4353 9.21094 11.4353H10.7422C10.9297 11.4353 11.0859 11.3103 11.1172 11.0916L11.3359 6.84155C11.3672 6.6228 11.1797 6.4353 10.9609 6.4353H8.99219C8.77344 6.4353 8.58594 6.6228 8.61719 6.84155Z" fill="#FFA72B"></path></svg>