<svg xmlns="http://www.w3.org/2000/svg" width="18" height="21" viewBox="0 0 18 21" fill="none"><path d="M17.0234 19.1853C17.2578 19.1853 17.4922 19.4197 17.4922 19.6541V20.4353H-0.0078125V19.6541C-0.0078125 19.4197 0.1875 19.1853 0.460938 19.1853H1.24219V1.3728C1.24219 0.86499 1.63281 0.435303 2.17969 0.435303H15.3047C15.8125 0.435303 16.2422 0.86499 16.2422 1.3728V19.1853H17.0234ZM4.99219 3.40405V4.96655C4.99219 5.23999 5.1875 5.4353 5.46094 5.4353H7.02344C7.25781 5.4353 7.49219 5.23999 7.49219 4.96655V3.40405C7.49219 3.16968 7.25781 2.9353 7.02344 2.9353H5.46094C5.1875 2.9353 4.99219 3.16968 4.99219 3.40405ZM4.99219 7.15405V8.71655C4.99219 8.98999 5.1875 9.1853 5.46094 9.1853H7.02344C7.25781 9.1853 7.49219 8.98999 7.49219 8.71655V7.15405C7.49219 6.91968 7.25781 6.6853 7.02344 6.6853H5.46094C5.1875 6.6853 4.99219 6.91968 4.99219 7.15405ZM7.02344 12.9353C7.25781 12.9353 7.49219 12.74 7.49219 12.4666V10.9041C7.49219 10.6697 7.25781 10.4353 7.02344 10.4353H5.46094C5.1875 10.4353 4.99219 10.6697 4.99219 10.9041V12.4666C4.99219 12.74 5.1875 12.9353 5.46094 12.9353H7.02344ZM9.99219 19.1853V15.9041C9.99219 15.6697 9.75781 15.4353 9.52344 15.4353H7.96094C7.6875 15.4353 7.49219 15.6697 7.49219 15.9041V19.1853H9.99219ZM12.4922 12.4666V10.9041C12.4922 10.6697 12.2578 10.4353 12.0234 10.4353H10.4609C10.1875 10.4353 9.99219 10.6697 9.99219 10.9041V12.4666C9.99219 12.74 10.1875 12.9353 10.4609 12.9353H12.0234C12.2578 12.9353 12.4922 12.74 12.4922 12.4666ZM12.4922 8.71655V7.15405C12.4922 6.91968 12.2578 6.6853 12.0234 6.6853H10.4609C10.1875 6.6853 9.99219 6.91968 9.99219 7.15405V8.71655C9.99219 8.98999 10.1875 9.1853 10.4609 9.1853H12.0234C12.2578 9.1853 12.4922 8.98999 12.4922 8.71655ZM12.4922 4.96655V3.40405C12.4922 3.16968 12.2578 2.9353 12.0234 2.9353H10.4609C10.1875 2.9353 9.99219 3.16968 9.99219 3.40405V4.96655C9.99219 5.23999 10.1875 5.4353 10.4609 5.4353H12.0234C12.2578 5.4353 12.4922 5.23999 12.4922 4.96655Z" fill="#FFA72B"></path></svg>