<svg xmlns="http://www.w3.org/2000/svg" id="Layer_1" data-name="Layer 1" viewBox="0 0 223.41 223.56"><defs><style>.cls-1{fill:#7f7f73;}</style></defs><title>portraitBG</title><path class="cls-1" d="M195.4,70.47l.31.62,7.93-5.4,0,0h0l7.15-6.38h0l.66-.64-.35-.62-.79.76-7.13,6.37Z" transform="translate(-1.49 -0.22)"></path><path class="cls-1" d="M196.61,73l.3.63,7.89-5.28,0,0h0l7.8-7.48-.34-.64-7.92,7.6Z" transform="translate(-1.49 -0.22)"></path><path class="cls-1" d="M201.55,58.85l-5,3-4.69,2.31.36.59,4.65-2.3h0l5-3,0,0h0l5-3.94v0h0l1.71-1.67-.37-.6-1.8,1.76Z" transform="translate(-1.49 -0.22)"></path><path class="cls-1" d="M209.46,88.5v0l-5.19,9.66c.06.38.11.77.16,1.16L210,88.86,219.11,76l-.28-.8-9.36,13.3Z" transform="translate(-1.49 -0.22)"></path><path class="cls-1" d="M203,85.39l0,0-1.11,1.77c.08.3.16.6.25.91l1.44-2.28,13.48-15.35-.29-.71L203,85.37Z" transform="translate(-1.49 -0.22)"></path><path class="cls-1" d="M157.42,23.3,146,25.74h-.06l-.23.1,1.1.42L157.57,24h0l8.57-2.62h0l8.1-3-.72-.47L166,20.69Z" transform="translate(-1.49 -0.22)"></path><path class="cls-1" d="M198.93,78.33l.25.67,8.34-5.85,0,0h0l7.34-7.63-.31-.67-7.51,7.8Z" transform="translate(-1.49 -0.22)"></path><path class="cls-1" d="M197.94,75.25h0l-.2.15.29.65.32-.24,7.88-5.07,0,0h0l7.52-7.63-.33-.65-7.66,7.77Z" transform="translate(-1.49 -0.22)"></path><path class="cls-1" d="M216.76,73.56h0l-9.64,12.69v0l-3.5,6.11h0l-.26.53q.12.56.23,1.12l.65-1.34,3.48-6.08L217.29,74l.8-.87-.27-.72-1,1.14Z" transform="translate(-1.49 -0.22)"></path><path class="cls-1" d="M176,28.35h0l-7.81,1.3h0l-9.22,2.42.84.49,8.54-2.24L176.06,29l4.09-.17,8,.37h.09l.15,0-.76-.68-7.43-.35h0l-4.12.17Z" transform="translate(-1.49 -0.22)"></path><path class="cls-1" d="M185.5,36.28l-7.32-2.19h-.06l-4-.43h-.07l-4.2.4h0L164,35.22l.82.54,5.13-1,4.14-.4,3.91.42L185.32,37h0l1.69.26h.07l1.81-.09H189l2.63-.66.11-.05h0L194,34.72l-.49-.5L191.4,35.8l-2.53.64-1.74.09Z" transform="translate(-1.49 -0.22)"></path><path class="cls-1" d="M150.47,27.81l1,.46,5.6-1.36h0L178,20.84l-.73-.51-20.31,5.9Z" transform="translate(-1.49 -0.22)"></path><path class="cls-1" d="M186.87,54.86l-1.1.47.43.57,1-.41h0L197.1,50l0,0h0l5.64-4.06,0,0h0l.34-.31-.41-.56-.37.34-5.61,4Z" transform="translate(-1.49 -0.22)"></path><path class="cls-1" d="M190,41.74l-2.52.73-2.19.07-9.48-1.79h0l-4.34-.28h-.25l.89.72,3.64.24,9.5,1.79h.08l2.27-.07h.08l2.59-.75,0,0h0l2.37-1.18,0,0h0l2.21-1.49,0,0h0l2-1.77-.46-.52-2,1.76-2.17,1.47Z" transform="translate(-1.49 -0.22)"></path><path class="cls-1" d="M187.86,57.79l-.18.08.41.57.07,0h0l11.89-6.67h0l4-2.69,0,0h0l.9-.83-.4-.57-.95.87-3.94,2.67Z" transform="translate(-1.49 -0.22)"></path><path class="cls-1" d="M187.6,47.14l-4.82.62-3.82-.2.71.73,3.11.16h.06l4.9-.63,0,0h.05l4.84-2.21,0,0h0l4.79-3.61v0h0l1.58-1.46-.45-.53-1.59,1.46L192.36,45Z" transform="translate(-1.49 -0.22)"></path><path class="cls-1" d="M189.62,60.62l.38.58,11.54-6.14,0,0h0l5.12-3.8,0,0h0l.2-.2-.39-.59-.28.27-5.08,3.77Z" transform="translate(-1.49 -0.22)"></path><path class="cls-1" d="M17.1,116.5h0l-4.65,8.7-4.27,5.57v0l0,0-.95,1.64v0l-.72,1.72h0a.33.33,0,0,0,0,.05.34.34,0,0,0,0,.07l-.06,3.79v0a.34.34,0,0,0,0,.09l.72,2.19v.06l1.29,2.39,0,0,0,0,3.26,3.8h0l0,0,3.75,3,0,0,0,0,4.67,2.66h0l5.8,2.68L35,160.51l-.77-1.26-7.83-4.65h0l-5.81-2.68-4.64-2.63-3.7-3L9,142.54,7.75,140.2l-.69-2.11.06-3.66.68-1.65.93-1.6L13,125.61v0l0,0,4.66-8.72L20.57,112h-.8Z" transform="translate(-1.49 -0.22)"></path><path class="cls-1" d="M111.72,205.74l-3.31-1.8-1.64-.1,4.62,2.51h0l1.86.92v-.77l-1.54-.77Z" transform="translate(-1.49 -0.22)"></path><path class="cls-1" d="M212.25,89.11h0L207.5,97.2h0l-2.69,5.2c0,.42.08.85.12,1.27l3.18-6.14,4.73-8.06,7.29-10.38-.26-.83-7.6,10.83Z" transform="translate(-1.49 -0.22)"></path><path class="cls-1" d="M21.5,121.91v0h0L15.6,133.46a.34.34,0,0,0,0,.06.35.35,0,0,0,0,.06l-.31,2.57a.33.33,0,0,0,0,.06s0,0,0,0l.17,1.26v0a.34.34,0,0,0,0,.08l1.13,2.34,0,0,0,0,1.8,2.27,0,0,0,0L23.21,146h0l6,3.69-.48-1.11-5.13-3.15-4.69-3.64-1.75-2.2-1.09-2.26-.16-1.16.3-2.47,5.58-10.93c0-.39-.09-.78-.13-1.17Z" transform="translate(-1.49 -0.22)"></path><path class="cls-1" d="M21.91,128l.49-1c-.06-.39-.13-.79-.19-1.18l-.93,1.89h0l-2,5.08v.05l-.42,1.82a1.26,1.26,0,0,1,0,.12h0l.14,1.2v0a.31.31,0,0,0,0,0l.39,1.27,0,0a.33.33,0,0,0,0,.06l1.47,2.24h0l0,0,3.19,2.94h0l3.17,2.35c-.15-.4-.31-.8-.46-1.2l-2.29-1.7-3.14-2.89L20,137.1l-.37-1.2-.13-1.12.4-1.74Z" transform="translate(-1.49 -0.22)"></path><path class="cls-1" d="M101.46,203.32l9,5h0l2.78,1.38v-.77l-2.46-1.22-7.52-4.15Z" transform="translate(-1.49 -0.22)"></path><path class="cls-1" d="M24.08,136.54l0,0,0,0,.73,1.14Q24,134.91,23.37,132l0,2.41v0a.34.34,0,0,0,0,.1Z" transform="translate(-1.49 -0.22)"></path><path class="cls-1" d="M20.38,119.57v0L17,126.16l-2.84,4.57v0l0,0-1.49,3.58a.28.28,0,0,0,0,0v0l-.34,1.84a.34.34,0,0,0,0,.08.28.28,0,0,0,0,0h0l.17,1.13h0s0,0,0,0l.32,1.31,0,0a.34.34,0,0,0,0,.05L14,141.28v0l1.57,2.18,0,0,0,.05,4.74,3.85,0,0,0,0,10.39,5.68L30.33,152l-9.49-5.19-4.68-3.8-1.53-2.12-1.23-2.27-.31-1.25-.16-1.07.33-1.75,1.46-3.51,2.83-4.56h0l3.4-6.55.5-.75c0-.38,0-.76-.07-1.13Z" transform="translate(-1.49 -0.22)"></path><path class="cls-1" d="M219.51,90.65h0l-6,9.62h0L207.27,112H208l6.06-11.37,6-9.6,2.29-3.35c-.07-.31-.13-.62-.2-.93l-2.66,3.9Z" transform="translate(-1.49 -0.22)"></path><path class="cls-1" d="M95.44,202.34l17,9.41h0l.81.38v-.76l-.51-.24-15.17-8.41Z" transform="translate(-1.49 -0.22)"></path><path class="cls-1" d="M214,104.12h0L210.13,112h.77l3.67-7.55L223,90.61c-.06-.33-.12-.66-.19-1l-.13.19h0L214,104.1Z" transform="translate(-1.49 -0.22)"></path><path class="cls-1" d="M218.1,88.8h0l-6.53,10.53h0l-6.27,11.72c0,.31,0,.61,0,.92h.28l6.58-12.3,6.52-10.51,3-4.32c-.07-.3-.14-.59-.22-.89l-3.4,4.81Z" transform="translate(-1.49 -0.22)"></path><path class="cls-1" d="M222.06,94.84h0l-3.46,5.92h0L215.42,107h0l-2.09,5h.75l2-4.7,3.16-6.19,3.45-5.9.92-1.38c-.05-.33-.11-.67-.17-1l-1.33,2Z" transform="translate(-1.49 -0.22)"></path><path class="cls-1" d="M76.24,196.69h0l11.91,6.51,8.33,5.18h0l16.76,8.9v-.78L96.84,207.8l-8.32-5.18h0l-9.05-4.95c-1.67-.66-3.31-1.37-4.92-2.12l1.69,1.14Z" transform="translate(-1.49 -0.22)"></path><path class="cls-1" d="M222.49,112h.74l.53-1.36v0l1.12-4.37c0-.75-.09-1.49-.14-2.23l-1.64,6.41Z" transform="translate(-1.49 -0.22)"></path><path class="cls-1" d="M11.08,124.25l0,0L17.54,112h-.78l-6.25,11.85-5,6v0h0l-2.07,3c.08.42.16.84.24,1.26l.27-.78L6,130.25l5.06-6Z" transform="translate(-1.49 -0.22)"></path><path class="cls-1" d="M7.49,124.95h0l2.17-3v0l0,0L14.58,112h-.77l-4.73,9.53-2.14,3-4.2,4.66c0,.29.1.58.14.87L7.47,125Z" transform="translate(-1.49 -0.22)"></path><path class="cls-1" d="M10,149l0,0L14,151.65h0L18.42,154h0l6.77,3,12.3,7.27L36.6,163l-11-6.54h0l-6.78-3-4.4-2.34-3.87-2.56-3.32-2.93-.94-1.18q.27.88.55,1.76L10,149Z" transform="translate(-1.49 -0.22)"></path><path class="cls-1" d="M3.82,125.6h0l2.81-3.76v0l0,0,4.94-9h0L12,112H11.2l-.2.41-4.92,9-2.79,3.72-1,1c0,.3.08.59.12.89l1.36-1.47Z" transform="translate(-1.49 -0.22)"></path><path class="cls-1" d="M113.26,1.37,116,.25l-1.76,0-1,.4Z" transform="translate(-1.49 -0.22)"></path><path class="cls-1" d="M5.67,112l-4,7c0,.42,0,.83.08,1.25L6.47,112Z" transform="translate(-1.49 -0.22)"></path><path class="cls-1" d="M3.38,112l-1.9,3.24c0,.43,0,.86,0,1.28L4.18,112Z" transform="translate(-1.49 -0.22)"></path><path class="cls-1" d="M15.78,155.39h0l9.63,4.19L40.19,168q-.53-.69-1.06-1.4L25.74,159h0l-9.64-4.19-6.32-3.09-1.42-.93c.14.37.28.73.42,1.1l.65.42h0l6.34,3.1Z" transform="translate(-1.49 -0.22)"></path><path class="cls-1" d="M60.22,202.22h0l-19.36-8.46-7.34-3.4,1.42,1.42,5.64,2.61h0l19.34,8.45,20.29,12.23h0l12.56,6.87,2.11.37-14.33-7.84Z" transform="translate(-1.49 -0.22)"></path><path class="cls-1" d="M108,222.19h0l-10.83-5.44-9.55-5.86h0L74,203.48l-11.81-7.64h0l-4.83-2.73h0l-6.75-3.23h0l-9.19-3.37-4.52-2-11.86-6.38h0L22.33,177h-.09l.76,1,1.63.67,11.86,6.38h0l4.55,2h0l9.18,3.37L57,193.71l4.81,2.71,11.82,7.65h0l13.62,7.4,9.55,5.86h0l10.83,5.44,1.55.95,1.4,0L108,222.19Z" transform="translate(-1.49 -0.22)"></path><path class="cls-1" d="M44.18,172.87q-.68-.77-1.34-1.56l-17.44-9.9h0l0,0-15.07-5.73.39.89L25.08,162Z" transform="translate(-1.49 -0.22)"></path><path class="cls-1" d="M69.13,211.52h0l-10.94-6h0l-13.5-5.75h0L43,199q1.12.91,2.27,1.79l12.58,5.36,10.9,6,9.74,6.2q1.26.41,2.54.79l-11.91-7.58Z" transform="translate(-1.49 -0.22)"></path><path class="cls-1" d="M27.19,168.82,41.58,177h0l13.58,6.42q-1.06-.86-2.1-1.76l-11.17-5.28-14.4-8.2h0l-5.06-1.93h0l-7.77-2h0l-.25,0,.42.8,7.42,1.94Z" transform="translate(-1.49 -0.22)"></path><path class="cls-1" d="M39.11,182.44h0l11.79,4.82,6.41,3.26,8.58,5.23,6.9,4.77h0L83.38,206l14.84,9h0l9.39,4.72,5.62,3.34v-.8L108,219.13h0l-9.39-4.72-14.84-9h0L73.2,200l-6.9-4.77h0l-8.6-5.25h0l-6.43-3.26h0l-11.8-4.82-15.15-8h0l-2.49-.91h0l-2.64-.6.55.83,1.92.43,2.45.89Z" transform="translate(-1.49 -0.22)"></path><path class="cls-1" d="M29.75,173.61l10.1,5.67h0l12.19,5.38,5.11,2.61,7.53,4.62h0l10.09,6.72h0l10.87,5.81,12.15,7.39h0l11.21,5.77,4.18,2.43v-.8L109.41,217h0l-11.21-5.77L86,203.86h0L75.17,198l-10.08-6.72h0l-7.54-4.62h0l-5.14-2.63h0l-12.18-5.38L30.07,173h0l-6.33-3h0l0,0-7.06-1.76.49.83,6.37,1.58Z" transform="translate(-1.49 -0.22)"></path><path class="cls-1" d="M123.8,13.74l-4.88,2-5.67,1.66v.72l5.87-1.72h0l4.91-2h0l9.33-5h0L142.05,4l-.91-.25-8,5Z" transform="translate(-1.49 -0.22)"></path><path class="cls-1" d="M142.35,8.25h0L125.7,17.47l-3.76,1.25L116,20h-.09c.92,0,1.83.07,2.74.12l3.49-.73h0l3.81-1.27,0,0h0l16.64-9.22,6.57-2.75-1-.33-5.84,2.45Z" transform="translate(-1.49 -0.22)"></path><path class="cls-1" d="M147.81,11.2h0l-5,1.65h0L140.33,14h0l-10,6.26-2.12.91,1.26.21,1.15-.49,0,0h0l10-6.26L143,13.5l5-1.63,7.37-1.62h0l2.3-.83-.92-.4-1.59.58-7.36,1.62Z" transform="translate(-1.49 -0.22)"></path><path class="cls-1" d="M113.26,3.59,120.77.47l-1.56-.1-6,2.47Z" transform="translate(-1.49 -0.22)"></path><path class="cls-1" d="M148.15,14.7h-.05l-3.86,1.16h-.06l-4.72,2.41h0l-6.12,3.85,1,.21,5.51-3.47,4.68-2.39,3.8-1.15,10.81-1.51h.06l3.38-1.11,0,0h0l.9-.59-.72-.36-.52.34-3.31,1.09Z" transform="translate(-1.49 -0.22)"></path><path class="cls-1" d="M146.57,19.58h-.08l-4.76,2h0l-3.3,1.82.93.28L142,22.24l4.71-2,10.66-1.51h0L163.95,17l0,0h0l3.56-1.75,0,0h0l.73-.48-.68-.38-.41.27-3.51,1.73-6.48,1.73Z" transform="translate(-1.49 -0.22)"></path><path class="cls-1" d="M113.26,7.82,126.66,1.9l0,0h0l1-.72-1-.12-.36.26L113.26,7.07Z" transform="translate(-1.49 -0.22)"></path><path class="cls-1" d="M113.26,10.91v.73l1-.35h0L128.2,4.52l0,0h0l3.9-2.69-1-.16-3.29,2.27L114,10.64Z" transform="translate(-1.49 -0.22)"></path><path class="cls-1" d="M130.57,7.07l-10.7,5.64L113.26,15v.73l6.87-2.37h0L130.9,7.67h0l3.61-2.07h0L138.22,3l-.92-.2L134.16,5Z" transform="translate(-1.49 -0.22)"></path><path class="cls-1" d="M163.58,18.92l-5.12,1.44-13,2.4,0,0h0l-3.52,1.71.95.31,2.83-1.37,13-2.4h0l5.15-1.45h0l3.69-1.5h0L171,16.3l-.71-.42-3.1,1.55Z" transform="translate(-1.49 -0.22)"></path></svg>