<svg xmlns="http://www.w3.org/2000/svg" xmlns:xlink="http://www.w3.org/1999/xlink" width="80" zoomAndPan="magnify" viewBox="0 0 60 60" height="80" preserveAspectRatio="xMidYMid meet"><defs><clipPath id="e158c3fe2f"><path d="M 7.976562 7.089844 L 52.015625 7.089844 L 52.015625 59.988281 L 7.976562 59.988281 Z M 7.976562 7.089844 " clip-rule="nonzero"></path></clipPath></defs><rect x="-6" width="72" fill="#ffffff" y="-6" height="72" fill-opacity="1"></rect><rect x="-6" width="72" fill="#ffffff" y="-6" height="72" fill-opacity="1"></rect><g clip-path="url(#e158c3fe2f)"><path fill="#fbbf24" d="M 10.753906 8.375 C 9.929688 8.375 9.257812 9.046875 9.257812 9.871094 L 9.257812 57.207031 C 9.257812 58.035156 9.929688 58.703125 10.753906 58.703125 L 49.234375 58.703125 C 50.058594 58.703125 50.730469 58.035156 50.730469 57.207031 L 50.730469 9.871094 C 50.730469 9.046875 50.058594 8.375 49.234375 8.375 L 44.292969 8.375 L 44.292969 10.484375 C 44.292969 11.75 43.261719 12.78125 41.996094 12.78125 L 17.445312 12.78125 C 16.179688 12.78125 15.148438 11.75 15.148438 10.484375 L 15.148438 8.375 Z M 49.234375 59.988281 L 10.753906 59.988281 C 9.222656 59.988281 7.976562 58.742188 7.976562 57.207031 L 7.976562 9.871094 C 7.976562 8.339844 9.222656 7.09375 10.753906 7.09375 L 16.433594 7.09375 L 16.433594 10.484375 C 16.433594 11.042969 16.886719 11.496094 17.445312 11.496094 L 41.996094 11.496094 C 42.554688 11.496094 43.007812 11.042969 43.007812 10.484375 L 43.007812 7.09375 L 49.234375 7.09375 C 50.769531 7.09375 52.015625 8.339844 52.015625 9.871094 L 52.015625 57.207031 C 52.015625 58.742188 50.769531 59.988281 49.234375 59.988281 " fill-opacity="1" fill-rule="nonzero"></path></g><path fill="#fbbf24" d="M 17.445312 5.082031 C 16.886719 5.082031 16.433594 5.539062 16.433594 6.097656 L 16.433594 10.484375 C 16.433594 11.042969 16.886719 11.496094 17.445312 11.496094 L 41.996094 11.496094 C 42.554688 11.496094 43.007812 11.042969 43.007812 10.484375 L 43.007812 6.097656 C 43.007812 5.539062 42.554688 5.082031 41.996094 5.082031 L 36.464844 5.082031 C 35.441406 5.082031 34.503906 4.484375 34.023438 3.519531 C 33.355469 2.167969 31.789062 1.296875 30.03125 1.296875 C 28.277344 1.296875 26.710938 2.167969 26.039062 3.519531 C 25.5625 4.484375 24.625 5.082031 23.601562 5.082031 Z M 41.996094 12.78125 L 17.445312 12.78125 C 16.179688 12.78125 15.148438 11.75 15.148438 10.484375 L 15.148438 6.097656 C 15.148438 4.832031 16.179688 3.800781 17.445312 3.800781 L 23.601562 3.800781 C 24.136719 3.800781 24.628906 3.472656 24.890625 2.945312 C 25.777344 1.164062 27.796875 0.0117188 30.03125 0.0117188 C 32.269531 0.0117188 34.289062 1.164062 35.175781 2.945312 C 35.4375 3.472656 35.929688 3.800781 36.464844 3.800781 L 41.996094 3.800781 C 43.261719 3.800781 44.292969 4.832031 44.292969 6.097656 L 44.292969 10.484375 C 44.292969 11.75 43.261719 12.78125 41.996094 12.78125 " fill-opacity="1" fill-rule="nonzero"></path><path fill="#fbbf24" d="M 31.070312 7.058594 C 31.070312 7.652344 30.589844 8.136719 29.996094 8.136719 C 29.398438 8.136719 28.917969 7.652344 28.917969 7.058594 C 28.917969 6.464844 29.398438 5.980469 29.996094 5.980469 C 30.589844 5.980469 31.070312 6.464844 31.070312 7.058594 " fill-opacity="1" fill-rule="nonzero"></path><path fill="#fbbf24" d="M 43.589844 23.273438 L 32.355469 23.273438 C 31.765625 23.273438 31.285156 22.796875 31.285156 22.207031 C 31.285156 21.617188 31.765625 21.136719 32.355469 21.136719 L 43.589844 21.136719 C 44.179688 21.136719 44.660156 21.617188 44.660156 22.207031 C 44.660156 22.796875 44.179688 23.273438 43.589844 23.273438 " fill-opacity="1" fill-rule="nonzero"></path><path fill="#fbbf24" d="M 43.589844 34.832031 L 32.355469 34.832031 C 31.765625 34.832031 31.285156 34.355469 31.285156 33.765625 C 31.285156 33.175781 31.765625 32.695312 32.355469 32.695312 L 43.589844 32.695312 C 44.179688 32.695312 44.660156 33.175781 44.660156 33.765625 C 44.660156 34.355469 44.179688 34.832031 43.589844 34.832031 " fill-opacity="1" fill-rule="nonzero"></path><path fill="#fbbf24" d="M 18.53125 23.496094 C 18.742188 23.816406 18.972656 24.117188 19.214844 24.410156 C 19.457031 24.703125 19.726562 24.964844 20.011719 25.214844 L 20.136719 25.324219 L 20.1875 25.367188 C 20.605469 25.675781 21.191406 25.589844 21.5 25.175781 C 21.921875 24.613281 22.300781 24.007812 22.734375 23.457031 C 23.160156 22.894531 23.59375 22.339844 24.003906 21.765625 C 24.425781 21.199219 24.835938 20.625 25.238281 20.046875 C 25.648438 19.472656 26.058594 18.894531 26.449219 18.304688 C 26.476562 18.269531 26.472656 18.21875 26.445312 18.183594 C 26.410156 18.140625 26.34375 18.136719 26.300781 18.171875 C 25.753906 18.621094 25.226562 19.089844 24.691406 19.554688 C 24.160156 20.015625 23.628906 20.484375 23.109375 20.960938 C 22.582031 21.429688 22.074219 21.914062 21.558594 22.394531 C 21.3125 22.632812 21.054688 22.859375 20.792969 23.085938 C 20.746094 23.046875 20.707031 23.003906 20.660156 22.964844 C 20.367188 22.722656 20.0625 22.496094 19.746094 22.28125 C 19.425781 22.066406 19.09375 21.863281 18.738281 21.6875 C 18.386719 21.503906 18.015625 21.339844 17.609375 21.214844 C 17.585938 21.210938 17.5625 21.210938 17.542969 21.214844 C 17.480469 21.234375 17.449219 21.296875 17.464844 21.359375 C 17.589844 21.769531 17.753906 22.140625 17.933594 22.488281 C 18.113281 22.84375 18.316406 23.175781 18.53125 23.496094 " fill-opacity="1" fill-rule="nonzero"></path><path fill="#fbbf24" d="M 26.300781 29.730469 C 25.753906 30.179688 25.226562 30.648438 24.691406 31.113281 C 24.160156 31.574219 23.628906 32.042969 23.109375 32.519531 C 22.582031 32.988281 22.074219 33.472656 21.558594 33.953125 C 21.3125 34.191406 21.054688 34.417969 20.792969 34.644531 C 20.746094 34.605469 20.707031 34.5625 20.660156 34.523438 C 20.367188 34.285156 20.0625 34.054688 19.746094 33.839844 C 19.425781 33.625 19.09375 33.421875 18.738281 33.246094 C 18.386719 33.0625 18.015625 32.898438 17.609375 32.773438 C 17.585938 32.769531 17.5625 32.769531 17.542969 32.773438 C 17.480469 32.792969 17.449219 32.855469 17.464844 32.917969 C 17.589844 33.328125 17.753906 33.699219 17.933594 34.046875 C 18.113281 34.402344 18.316406 34.734375 18.53125 35.054688 C 18.742188 35.375 18.972656 35.675781 19.214844 35.96875 C 19.457031 36.261719 19.726562 36.523438 20.011719 36.773438 L 20.136719 36.882812 L 20.1875 36.925781 C 20.605469 37.234375 21.191406 37.148438 21.5 36.734375 C 21.921875 36.171875 22.300781 35.566406 22.734375 35.015625 C 23.160156 34.453125 23.59375 33.898438 24.003906 33.324219 C 24.425781 32.757812 24.835938 32.183594 25.242188 31.605469 C 25.648438 31.03125 26.058594 30.453125 26.449219 29.863281 C 26.476562 29.828125 26.472656 29.777344 26.445312 29.742188 C 26.410156 29.699219 26.34375 29.695312 26.300781 29.730469 " fill-opacity="1" fill-rule="nonzero"></path><path fill="#fbbf24" d="M 26.300781 41.289062 C 25.753906 41.738281 25.226562 42.207031 24.691406 42.671875 C 24.160156 43.132812 23.628906 43.601562 23.109375 44.078125 C 22.582031 44.546875 22.074219 45.03125 21.558594 45.511719 C 21.3125 45.75 21.054688 45.976562 20.792969 46.203125 C 20.746094 46.164062 20.707031 46.121094 20.660156 46.082031 C 20.367188 45.84375 20.0625 45.613281 19.746094 45.398438 C 19.425781 45.183594 19.09375 44.980469 18.738281 44.804688 C 18.386719 44.621094 18.015625 44.457031 17.609375 44.332031 C 17.585938 44.328125 17.5625 44.328125 17.542969 44.332031 C 17.480469 44.351562 17.449219 44.414062 17.464844 44.476562 C 17.589844 44.886719 17.753906 45.257812 17.933594 45.605469 C 18.113281 45.960938 18.316406 46.292969 18.53125 46.613281 C 18.742188 46.933594 18.972656 47.234375 19.214844 47.527344 C 19.457031 47.820312 19.726562 48.085938 20.011719 48.332031 L 20.136719 48.441406 L 20.1875 48.484375 C 20.605469 48.792969 21.191406 48.707031 21.5 48.292969 C 21.921875 47.730469 22.300781 47.125 22.734375 46.574219 C 23.160156 46.011719 23.59375 45.457031 24.003906 44.882812 C 24.425781 44.320312 24.835938 43.742188 25.238281 43.164062 C 25.648438 42.589844 26.058594 42.011719 26.449219 41.421875 C 26.476562 41.386719 26.472656 41.335938 26.445312 41.300781 C 26.410156 41.257812 26.34375 41.253906 26.300781 41.289062 " fill-opacity="1" fill-rule="nonzero"></path><path fill="#fbbf24" d="M 43.589844 46.390625 L 32.355469 46.390625 C 31.765625 46.390625 31.285156 45.914062 31.285156 45.324219 C 31.285156 44.734375 31.765625 44.253906 32.355469 44.253906 L 43.589844 44.253906 C 44.179688 44.253906 44.660156 44.734375 44.660156 45.324219 C 44.660156 45.914062 44.179688 46.390625 43.589844 46.390625 " fill-opacity="1" fill-rule="nonzero"></path></svg>