<svg xmlns="http://www.w3.org/2000/svg" xmlns:xlink="http://www.w3.org/1999/xlink" width="80" zoomAndPan="magnify" viewBox="0 0 60 60" height="80" preserveAspectRatio="xMidYMid meet"><defs><clipPath id="a07554c45a"><path d="M 21.191406 20.835938 L 38.441406 20.835938 L 38.441406 41.992188 L 21.191406 41.992188 Z M 21.191406 20.835938 " clip-rule="nonzero"></path></clipPath></defs><rect x="-6" width="72" fill="#ffffff" y="-6" height="72" fill-opacity="1"></rect><rect x="-6" width="72" fill="#ffffff" y="-6" height="72" fill-opacity="1"></rect><g clip-path="url(#a07554c45a)"><path fill="#fbbf24" d="M 22.300781 21.351562 C 21.972656 21.351562 21.703125 21.621094 21.703125 21.949219 L 21.703125 40.882812 C 21.703125 41.210938 21.972656 41.480469 22.300781 41.480469 L 37.691406 41.480469 C 38.023438 41.480469 38.289062 41.210938 38.289062 40.882812 L 38.289062 21.949219 C 38.289062 21.621094 38.023438 21.351562 37.691406 21.351562 L 35.714844 21.351562 L 35.714844 22.195312 C 35.714844 22.699219 35.304688 23.113281 34.796875 23.113281 L 24.976562 23.113281 C 24.472656 23.113281 24.058594 22.699219 24.058594 22.195312 L 24.058594 21.351562 Z M 37.691406 41.992188 L 22.300781 41.992188 C 21.6875 41.992188 21.191406 41.496094 21.191406 40.882812 L 21.191406 21.949219 C 21.191406 21.335938 21.6875 20.839844 22.300781 20.839844 L 24.574219 20.839844 L 24.574219 22.195312 C 24.574219 22.417969 24.753906 22.601562 24.976562 22.601562 L 34.796875 22.601562 C 35.019531 22.601562 35.203125 22.417969 35.203125 22.195312 L 35.203125 20.839844 L 37.691406 20.839844 C 38.304688 20.839844 38.804688 21.335938 38.804688 21.949219 L 38.804688 40.882812 C 38.804688 41.496094 38.304688 41.992188 37.691406 41.992188 " fill-opacity="1" fill-rule="nonzero"></path></g><path fill="#fbbf24" d="M 24.976562 20.035156 C 24.753906 20.035156 24.574219 20.214844 24.574219 20.441406 L 24.574219 22.195312 C 24.574219 22.417969 24.753906 22.601562 24.976562 22.601562 L 34.796875 22.601562 C 35.019531 22.601562 35.203125 22.417969 35.203125 22.195312 L 35.203125 20.441406 C 35.203125 20.214844 35.019531 20.035156 34.796875 20.035156 L 32.585938 20.035156 C 32.175781 20.035156 31.800781 19.792969 31.609375 19.410156 C 31.339844 18.867188 30.714844 18.519531 30.011719 18.519531 C 29.308594 18.519531 28.683594 18.867188 28.414062 19.410156 C 28.222656 19.792969 27.851562 20.035156 27.441406 20.035156 Z M 34.796875 23.113281 L 24.976562 23.113281 C 24.472656 23.113281 24.058594 22.699219 24.058594 22.195312 L 24.058594 20.441406 C 24.058594 19.933594 24.472656 19.523438 24.976562 19.523438 L 27.441406 19.523438 C 27.652344 19.523438 27.851562 19.390625 27.957031 19.179688 C 28.308594 18.46875 29.117188 18.007812 30.011719 18.007812 C 30.90625 18.007812 31.714844 18.46875 32.066406 19.179688 C 32.171875 19.390625 32.371094 19.523438 32.585938 19.523438 L 34.796875 19.523438 C 35.304688 19.523438 35.714844 19.933594 35.714844 20.441406 L 35.714844 22.195312 C 35.714844 22.699219 35.304688 23.113281 34.796875 23.113281 " fill-opacity="1" fill-rule="nonzero"></path><path fill="#fbbf24" d="M 30.425781 20.824219 C 30.425781 21.0625 30.234375 21.253906 29.996094 21.253906 C 29.757812 21.253906 29.566406 21.0625 29.566406 20.824219 C 29.566406 20.585938 29.757812 20.394531 29.996094 20.394531 C 30.234375 20.394531 30.425781 20.585938 30.425781 20.824219 " fill-opacity="1" fill-rule="nonzero"></path><path fill="#fbbf24" d="M 35.433594 27.308594 L 30.941406 27.308594 C 30.703125 27.308594 30.511719 27.117188 30.511719 26.882812 C 30.511719 26.648438 30.703125 26.457031 30.941406 26.457031 L 35.433594 26.457031 C 35.671875 26.457031 35.863281 26.648438 35.863281 26.882812 C 35.863281 27.117188 35.671875 27.308594 35.433594 27.308594 " fill-opacity="1" fill-rule="nonzero"></path><path fill="#fbbf24" d="M 35.433594 31.933594 L 30.941406 31.933594 C 30.703125 31.933594 30.511719 31.742188 30.511719 31.503906 C 30.511719 31.269531 30.703125 31.078125 30.941406 31.078125 L 35.433594 31.078125 C 35.671875 31.078125 35.863281 31.269531 35.863281 31.503906 C 35.863281 31.742188 35.671875 31.933594 35.433594 31.933594 " fill-opacity="1" fill-rule="nonzero"></path><path fill="#fbbf24" d="M 25.410156 27.398438 C 25.496094 27.527344 25.589844 27.648438 25.683594 27.765625 C 25.78125 27.882812 25.890625 27.988281 26.003906 28.085938 L 26.054688 28.128906 L 26.074219 28.148438 C 26.242188 28.269531 26.476562 28.238281 26.601562 28.070312 C 26.769531 27.84375 26.917969 27.605469 27.09375 27.382812 C 27.261719 27.15625 27.4375 26.9375 27.601562 26.707031 C 27.769531 26.480469 27.933594 26.25 28.09375 26.019531 C 28.257812 25.789062 28.421875 25.558594 28.578125 25.324219 C 28.589844 25.308594 28.589844 25.289062 28.578125 25.273438 C 28.5625 25.257812 28.535156 25.253906 28.519531 25.269531 C 28.300781 25.449219 28.089844 25.636719 27.875 25.820312 C 27.664062 26.007812 27.449219 26.195312 27.242188 26.382812 C 27.03125 26.570312 26.828125 26.765625 26.625 26.957031 C 26.523438 27.054688 26.421875 27.144531 26.316406 27.234375 C 26.296875 27.21875 26.28125 27.203125 26.261719 27.1875 C 26.144531 27.089844 26.023438 27 25.898438 26.914062 C 25.769531 26.828125 25.636719 26.746094 25.496094 26.675781 C 25.355469 26.601562 25.207031 26.535156 25.042969 26.488281 C 25.035156 26.484375 25.023438 26.484375 25.015625 26.488281 C 24.992188 26.496094 24.976562 26.519531 24.984375 26.542969 C 25.035156 26.707031 25.101562 26.855469 25.171875 26.996094 C 25.246094 27.136719 25.324219 27.269531 25.410156 27.398438 " fill-opacity="1" fill-rule="nonzero"></path><path fill="#fbbf24" d="M 28.519531 29.890625 C 28.300781 30.074219 28.089844 30.257812 27.875 30.445312 C 27.664062 30.628906 27.449219 30.816406 27.242188 31.007812 C 27.03125 31.195312 26.828125 31.390625 26.625 31.582031 C 26.523438 31.675781 26.421875 31.765625 26.316406 31.855469 C 26.296875 31.839844 26.28125 31.824219 26.261719 31.808594 C 26.144531 31.714844 26.023438 31.621094 25.898438 31.535156 C 25.769531 31.449219 25.636719 31.367188 25.496094 31.296875 C 25.355469 31.222656 25.207031 31.160156 25.042969 31.109375 C 25.035156 31.105469 25.023438 31.105469 25.015625 31.109375 C 24.992188 31.117188 24.976562 31.144531 24.984375 31.167969 C 25.035156 31.332031 25.101562 31.480469 25.171875 31.617188 C 25.246094 31.761719 25.324219 31.894531 25.410156 32.019531 C 25.496094 32.148438 25.589844 32.269531 25.683594 32.386719 C 25.78125 32.503906 25.890625 32.609375 26.003906 32.710938 L 26.054688 32.753906 L 26.074219 32.769531 C 26.242188 32.894531 26.476562 32.859375 26.601562 32.695312 C 26.769531 32.46875 26.917969 32.226562 27.09375 32.003906 C 27.261719 31.78125 27.4375 31.558594 27.601562 31.332031 C 27.769531 31.105469 27.933594 30.875 28.09375 30.640625 C 28.257812 30.410156 28.421875 30.183594 28.578125 29.945312 C 28.589844 29.929688 28.589844 29.910156 28.578125 29.898438 C 28.5625 29.878906 28.535156 29.878906 28.519531 29.890625 " fill-opacity="1" fill-rule="nonzero"></path><path fill="#fbbf24" d="M 28.519531 34.515625 C 28.300781 34.695312 28.089844 34.882812 27.875 35.066406 C 27.664062 35.253906 27.449219 35.441406 27.242188 35.628906 C 27.03125 35.816406 26.828125 36.011719 26.625 36.203125 C 26.523438 36.300781 26.421875 36.390625 26.316406 36.480469 C 26.296875 36.464844 26.28125 36.449219 26.261719 36.433594 C 26.144531 36.335938 26.023438 36.242188 25.898438 36.160156 C 25.769531 36.074219 25.636719 35.992188 25.496094 35.921875 C 25.355469 35.847656 25.207031 35.78125 25.042969 35.734375 C 25.035156 35.730469 25.023438 35.730469 25.015625 35.734375 C 24.992188 35.738281 24.976562 35.765625 24.984375 35.789062 C 25.035156 35.953125 25.101562 36.101562 25.171875 36.242188 C 25.246094 36.382812 25.324219 36.515625 25.410156 36.644531 C 25.496094 36.773438 25.589844 36.894531 25.683594 37.011719 C 25.78125 37.128906 25.890625 37.234375 26.003906 37.332031 L 26.054688 37.375 L 26.074219 37.394531 C 26.242188 37.515625 26.476562 37.484375 26.601562 37.316406 C 26.769531 37.089844 26.917969 36.847656 27.09375 36.628906 C 27.261719 36.402344 27.4375 36.183594 27.601562 35.953125 C 27.769531 35.726562 27.933594 35.496094 28.09375 35.265625 C 28.257812 35.035156 28.421875 34.804688 28.578125 34.570312 C 28.589844 34.554688 28.589844 34.535156 28.578125 34.519531 C 28.5625 34.503906 28.535156 34.5 28.519531 34.515625 " fill-opacity="1" fill-rule="nonzero"></path><path fill="#fbbf24" d="M 35.433594 36.554688 L 30.941406 36.554688 C 30.703125 36.554688 30.511719 36.363281 30.511719 36.128906 C 30.511719 35.890625 30.703125 35.699219 30.941406 35.699219 L 35.433594 35.699219 C 35.671875 35.699219 35.863281 35.890625 35.863281 36.128906 C 35.863281 36.363281 35.671875 36.554688 35.433594 36.554688 " fill-opacity="1" fill-rule="nonzero"></path></svg>