<?xml version="1.0" encoding="UTF-8"?>
<svg id="Layer_2" data-name="Layer 2" xmlns="http://www.w3.org/2000/svg" viewBox="0 0 432 111.06">
  <defs>
    <style>
      .cls-1 {
        fill: #50a7dd;
      }

      .cls-2 {
        fill: #f9a630;
      }
    </style>
  </defs>
  <g>
    <g>
      <path class="cls-2" d="M145.84,27.97h10.94l13.74,35.61h-10.94l-2.03-5.6h-13.02l-1.98,5.6h-10.68l13.99-35.61ZM154.79,50.36l-3.61-9.92h-.51l-3.51,9.92h7.63Z"/>
      <path class="cls-2" d="M178.65,36.62h-10.94v-8.65h31.79v8.65h-10.94v26.96h-9.92v-26.96Z"/>
      <path class="cls-2" d="M213.5,36.62h-10.94v-8.65h31.79v8.65h-10.94v26.96h-9.92v-26.96Z"/>
      <path class="cls-2" d="M272.76,44.51v2.54c0,12.21-8.65,17.3-17.81,17.3s-17.8-5.09-17.8-17.3v-2.54c0-12.21,8.65-17.3,17.8-17.3s17.81,5.09,17.81,17.3ZM254.96,55.7c5.34,0,7.38-2.54,7.38-7.89v-4.07c0-5.34-2.03-7.88-7.38-7.88s-7.38,2.54-7.38,7.88v4.07c0,5.34,2.03,7.89,7.38,7.89Z"/>
      <path class="cls-2" d="M279.63,27.97h19.58c6.36,0,12.97,1.78,12.97,9.41v2.54c0,4.32-2.29,6.87-6.36,7.38v.51c3.56.51,5.85,2.29,5.85,6.61v2.54c0,1.53,0,4.07.51,6.61h-9.92c-.51-2.54-.51-4.58-.51-5.6v-2.03c0-2.54-1.02-3.56-3.56-3.56h-8.65v11.19h-9.92V27.97ZM298.71,43.74c2.03,0,3.05-1.02,3.05-2.85v-1.48c0-1.78-1.02-2.8-3.05-2.8h-9.16v7.12h9.16Z"/>
      <path class="cls-2" d="M319.57,27.97h11.45l12.21,20.35h.51v-20.35h9.92v35.61h-11.45l-12.21-20.35h-.51v20.35h-9.92V27.97Z"/>
      <path class="cls-2" d="M361.79,27.97h28.49v8.65h-18.57v5.09h17.55v7.88h-17.55v5.34h18.82v8.65h-28.74V27.97Z"/>
      <path class="cls-2" d="M419.02,27.97h10.68l-12.97,22.89v12.72h-9.92v-12.72l-13.48-22.89h11.45l7.07,12.97h.51l6.66-12.97Z"/>
    </g>
    <g>
      <path class="cls-1" d="M140.77,72.96h5.34l8.45,21.74h-5.22l-1.74-4.63h-8.7l-1.71,4.63h-5.06l8.63-21.74ZM146.17,86.28l-2.83-7.52h-.25l-2.8,7.52h5.87Z"/>
      <path class="cls-1" d="M181.12,86.13l-4.88-.71c-3.79-.56-5.75-2.86-5.75-5.9v-.78c0-3.88,3.23-6.18,8.88-6.18s8.7,2.27,8.85,7.18h-4.57l-.03-.53c-.12-1.77-1.4-2.73-4.26-2.73-3.07,0-4.22.87-4.22,2.27v.31c0,1.34.78,1.86,2.64,2.17l4.88.71c4.32.62,6.18,2.73,6.18,5.9v.93c0,3.88-3.2,6.34-9.1,6.34-6.4,0-9.54-2.24-9.69-7.61h4.66l.03.53c.12,2.24,1.8,3.11,5,3.11,3.01,0,4.38-.81,4.38-2.36v-.31c0-1.34-.75-1.96-3.01-2.33Z"/>
      <path class="cls-1" d="M217.06,86.13l-4.88-.71c-3.79-.56-5.75-2.86-5.75-5.9v-.78c0-3.88,3.23-6.18,8.88-6.18s8.7,2.27,8.85,7.18h-4.57l-.03-.53c-.12-1.77-1.4-2.73-4.26-2.73-3.07,0-4.22.87-4.22,2.27v.31c0,1.34.78,1.86,2.64,2.17l4.88.71c4.32.62,6.18,2.73,6.18,5.9v.93c0,3.88-3.2,6.34-9.1,6.34-6.4,0-9.54-2.24-9.69-7.61h4.66l.03.53c.12,2.24,1.8,3.11,5,3.11,3.01,0,4.38-.81,4.38-2.36v-.31c0-1.34-.75-1.96-3.01-2.33Z"/>
      <path class="cls-1" d="M243.12,72.96h4.72v21.74h-4.72v-21.74Z"/>
      <path class="cls-1" d="M277.17,86.13l-4.88-.71c-3.79-.56-5.75-2.86-5.75-5.9v-.78c0-3.88,3.23-6.18,8.88-6.18s8.7,2.27,8.85,7.18h-4.57l-.03-.53c-.12-1.77-1.4-2.73-4.26-2.73-3.07,0-4.22.87-4.22,2.27v.31c0,1.34.78,1.86,2.64,2.17l4.88.71c4.32.62,6.18,2.73,6.18,5.9v.93c0,3.88-3.2,6.34-9.1,6.34-6.4,0-9.54-2.24-9.69-7.61h4.66l.03.53c.12,2.24,1.8,3.11,5,3.11,3.01,0,4.38-.81,4.38-2.36v-.31c0-1.34-.75-1.96-3.01-2.33Z"/>
      <path class="cls-1" d="M307.67,77.12h-7.14v-4.16h18.95v4.16h-7.08v17.58h-4.72v-17.58Z"/>
      <path class="cls-1" d="M340.47,72.96h5.34l8.45,21.74h-5.22l-1.74-4.63h-8.7l-1.71,4.63h-5.06l8.63-21.74ZM345.88,86.28l-2.83-7.52h-.25l-2.8,7.52h5.87Z"/>
      <path class="cls-1" d="M371.35,72.96h5.37l9.54,14.41h.22v-14.41h4.75v21.74h-5.4l-9.5-14.41h-.25v14.41h-4.72v-21.74Z"/>
      <path class="cls-1" d="M415.59,77.12h-7.14v-4.16h18.95v4.16h-7.08v17.58h-4.72v-17.58Z"/>
    </g>
  </g>
  <path class="cls-2" d="M111.22,60.92c.09-1.27.14-2.56.14-3.86,0-10.17-2.89-19.67-7.89-27.72.74-1.29.73-2.97-.22-4.28C93.3,11.23,77.07,2.23,58.73,2.23S24.17,11.23,14.21,25.05c-.95,1.32-.96,2.99-.22,4.28-5,8.05-7.89,17.55-7.89,27.72,0,1.3.05,2.58.14,3.86-2.89,2.29-4.14,6.25-2.85,9.92l3.77,10.65c1.31,3.7,4.83,6,8.56,5.92.29,0,.59-.03.89-.06.61-.07,1.23-.21,1.84-.42.02,0,.04-.02.06-.02l.94-.33,2.15-.76c.86,1.04,2.44,1.1,3.38.11h0c.75-.81.81-2.03.13-2.9-5.43-7.04-8.65-15.76-8.84-25-.03-1.26-1.07-2.26-2.32-2.21-1.2.04-2.17,1.03-2.17,2.23v.05c0,.13,0,.25.01.38l-2.14.76c-.03-.71-.05-1.42-.05-2.14,0-9.46,2.68-18.29,7.31-25.79,1.4.17,2.83-.42,3.7-1.63,8.52-11.83,22.42-19.53,38.12-19.53s29.59,7.7,38.12,19.53c.87,1.2,2.3,1.8,3.7,1.63,4.63,7.5,7.31,16.33,7.31,25.79,0,.72-.02,1.43-.05,2.14l-2.14-.76c0-.13,0-.25.01-.38.03-1.22-.95-2.23-2.17-2.27-.03,0-.05,0-.08,0-1.22,0-2.22.98-2.25,2.21-.19,9.24-3.41,17.96-8.84,25-.67.87-.61,2.1.13,2.9h0c.93,1,2.51.94,3.38-.1l2.15.76.94.33s.04.02.06.02c-1.46,1.96-3.07,3.83-4.84,5.59-3.35,3.35-7.08,6.16-11.1,8.4-.75-.74-1.9-.94-2.88-.45-2.62,1.3-5.37,2.36-8.23,3.18-1.05.3-1.77,1.22-1.83,2.26,0,.05,0,.1,0,.15,0,.18.02.36.06.54.08.37.24.69.45.97.61.8,1.67,1.19,2.7.9,3.16-.9,6.2-2.07,9.09-3.51.89-.44,1.41-1.33,1.41-2.26,0-.07,0-.14,0-.21,4.2-2.33,8.1-5.26,11.59-8.75,2-2,3.82-4.14,5.45-6.39.3.04.59.06.89.06,3.73.08,7.24-2.21,8.56-5.92l3.77-10.65c1.3-3.67.04-7.63-2.85-9.92Z"/>
  <path class="cls-1" d="M58.73,19.73c-20.5,0-37.09,16.38-37.32,36.89-.18,15.24,8.78,28.4,21.73,34.36,2.75,1.27,5.2,3.11,7.18,5.41l7.06,8.23c.71.83,2,.83,2.71,0l7.06-8.23c1.98-2.31,4.45-4.15,7.22-5.43,12.81-5.91,21.69-18.87,21.69-33.9,0-20.62-16.71-37.33-37.33-37.33ZM41.7,61.57c-2.48,0-4.48-2.01-4.48-4.48s2.01-4.48,4.48-4.48,4.48,2.01,4.48,4.48-2.01,4.48-4.48,4.48ZM58.28,61.57c-2.48,0-4.48-2.01-4.48-4.48s2.01-4.48,4.48-4.48,4.48,2.01,4.48,4.48-2.01,4.48-4.48,4.48ZM74.86,61.57c-2.48,0-4.48-2.01-4.48-4.48s2.01-4.48,4.48-4.48,4.48,2.01,4.48,4.48-2.01,4.48-4.48,4.48Z"/>
</svg>