<?xml version="1.0" encoding="UTF-8"?>
<svg id="Layer_2" data-name="Layer 2" xmlns="http://www.w3.org/2000/svg" viewBox="0 0 342.9 251.71">
  <defs>
    <style>
      .cls-1 {
        fill: #50a7dd;
      }

      .cls-2 {
        fill: #f9a630;
      }
    </style>
  </defs>
  <g>
    <g>
      <path class="cls-2" d="M18.63,174.42h12.4l15.57,40.38h-12.4l-2.31-6.35h-14.77l-2.25,6.35H2.76l15.86-40.38ZM28.78,199.8l-4.1-11.25h-.58l-3.98,11.25h8.65Z"/>
      <path class="cls-2" d="M55.83,184.22h-12.4v-9.81h36.05v9.81h-12.4v30.57h-11.25v-30.57Z"/>
      <path class="cls-2" d="M95.34,184.22h-12.4v-9.81h36.05v9.81h-12.4v30.57h-11.25v-30.57Z"/>
      <path class="cls-2" d="M162.54,193.16v2.88c0,13.84-9.81,19.61-20.19,19.61s-20.19-5.77-20.19-19.61v-2.88c0-13.84,9.81-19.61,20.19-19.61s20.19,5.77,20.19,19.61ZM142.36,205.85c6.06,0,8.36-2.88,8.36-8.94v-4.61c0-6.06-2.31-8.94-8.36-8.94s-8.36,2.88-8.36,8.94v4.61c0,6.06,2.31,8.94,8.36,8.94Z"/>
      <path class="cls-2" d="M170.33,174.42h22.21c7.21,0,14.71,2.02,14.71,10.67v2.88c0,4.9-2.6,7.79-7.21,8.36v.58c4.04.58,6.63,2.6,6.63,7.5v2.88c0,1.73,0,4.61.58,7.5h-11.25c-.58-2.88-.58-5.19-.58-6.35v-2.31c0-2.88-1.15-4.04-4.04-4.04h-9.81v12.69h-11.25v-40.38ZM191.96,192.3c2.31,0,3.46-1.15,3.46-3.23v-1.67c0-2.02-1.15-3.17-3.46-3.17h-10.38v8.08h10.38Z"/>
      <path class="cls-2" d="M215.61,174.42h12.98l13.84,23.07h.58v-23.07h11.25v40.38h-12.98l-13.84-23.07h-.58v23.07h-11.25v-40.38Z"/>
      <path class="cls-2" d="M263.49,174.42h32.3v9.81h-21.05v5.77h19.9v8.94h-19.9v6.06h21.34v9.81h-32.59v-40.38Z"/>
      <path class="cls-2" d="M328.38,174.42h12.11l-14.71,25.96v14.42h-11.25v-14.42l-15.29-25.96h12.98l8.02,14.71h.58l7.56-14.71Z"/>
    </g>
    <g>
      <path class="cls-1" d="M12.88,225.42h6.06l9.58,24.65h-5.92l-1.97-5.25h-9.86l-1.94,5.25H3.09l9.79-24.65ZM19.01,240.53l-3.21-8.52h-.28l-3.17,8.52h6.66Z"/>
      <path class="cls-1" d="M58.63,240.35l-5.53-.81c-4.3-.63-6.52-3.24-6.52-6.69v-.88c0-4.4,3.66-7.01,10.07-7.01s9.86,2.57,10.04,8.14h-5.18l-.04-.6c-.14-2.01-1.59-3.1-4.83-3.1-3.49,0-4.79.99-4.79,2.57v.35c0,1.51.88,2.11,2.99,2.47l5.53.81c4.9.7,7.01,3.1,7.01,6.69v1.06c0,4.4-3.63,7.18-10.32,7.18-7.25,0-10.81-2.54-10.99-8.63h5.28l.04.6c.14,2.54,2.04,3.52,5.67,3.52,3.42,0,4.97-.92,4.97-2.68v-.35c0-1.51-.85-2.22-3.42-2.64Z"/>
      <path class="cls-1" d="M99.38,240.35l-5.53-.81c-4.3-.63-6.52-3.24-6.52-6.69v-.88c0-4.4,3.66-7.01,10.07-7.01s9.86,2.57,10.04,8.14h-5.18l-.04-.6c-.14-2.01-1.59-3.1-4.83-3.1-3.49,0-4.79.99-4.79,2.57v.35c0,1.51.88,2.11,2.99,2.47l5.53.81c4.9.7,7.01,3.1,7.01,6.69v1.06c0,4.4-3.63,7.18-10.32,7.18-7.25,0-10.81-2.54-10.99-8.63h5.28l.04.6c.14,2.54,2.04,3.52,5.67,3.52,3.42,0,4.97-.92,4.97-2.68v-.35c0-1.51-.85-2.22-3.42-2.64Z"/>
      <path class="cls-1" d="M128.93,225.42h5.35v24.65h-5.35v-24.65Z"/>
      <path class="cls-1" d="M167.54,240.35l-5.53-.81c-4.3-.63-6.52-3.24-6.52-6.69v-.88c0-4.4,3.66-7.01,10.07-7.01s9.86,2.57,10.04,8.14h-5.18l-.04-.6c-.14-2.01-1.59-3.1-4.83-3.1-3.49,0-4.79.99-4.79,2.57v.35c0,1.51.88,2.11,2.99,2.47l5.53.81c4.9.7,7.01,3.1,7.01,6.69v1.06c0,4.4-3.63,7.18-10.32,7.18-7.26,0-10.81-2.54-10.99-8.63h5.28l.04.6c.14,2.54,2.04,3.52,5.67,3.52,3.42,0,4.97-.92,4.97-2.68v-.35c0-1.51-.85-2.22-3.42-2.64Z"/>
      <path class="cls-1" d="M202.13,230.14h-8.1v-4.72h21.48v4.72h-8.03v19.93h-5.35v-19.93Z"/>
      <path class="cls-1" d="M239.32,225.42h6.06l9.58,24.65h-5.92l-1.97-5.25h-9.86l-1.94,5.25h-5.74l9.79-24.65ZM245.45,240.53l-3.21-8.52h-.28l-3.17,8.52h6.66Z"/>
      <path class="cls-1" d="M274.33,225.42h6.09l10.81,16.34h.25v-16.34h5.39v24.65h-6.13l-10.78-16.34h-.28v16.34h-5.35v-24.65Z"/>
      <path class="cls-1" d="M324.49,230.14h-8.1v-4.72h21.48v4.72h-8.03v19.93h-5.35v-19.93Z"/>
    </g>
  </g>
  <g>
    <path class="cls-2" d="M246.99,86.11c.13-1.83.2-3.67.2-5.54,0-14.61-4.15-28.25-11.33-39.81,1.07-1.85,1.05-4.26-.31-6.15C221.26,14.77,197.95,1.85,171.63,1.85s-49.63,12.92-63.92,32.77c-1.36,1.89-1.38,4.3-.31,6.15-7.18,11.56-11.33,25.2-11.33,39.81,0,1.86.07,3.71.2,5.54-4.15,3.29-5.95,8.97-4.09,14.24l5.41,15.29c1.88,5.32,6.94,8.61,12.29,8.5.42,0,.85-.04,1.27-.09.88-.11,1.76-.3,2.64-.61.03,0,.06-.02.09-.03l1.35-.48,3.09-1.1c1.24,1.49,3.51,1.59,4.85.15h0c1.08-1.16,1.16-2.92.19-4.17-7.8-10.11-12.42-22.62-12.7-35.89-.04-1.81-1.53-3.24-3.34-3.18-1.73.06-3.11,1.47-3.11,3.2v.07c0,.18,0,.36.02.54l-3.07,1.08c-.05-1.02-.07-2.04-.07-3.07,0-13.58,3.84-26.27,10.5-37.03,2.01.25,4.07-.61,5.31-2.34,12.24-16.99,32.19-28.04,54.73-28.04s42.49,11.06,54.73,28.04c1.25,1.73,3.3,2.59,5.31,2.34,6.65,10.77,10.5,23.45,10.5,37.03,0,1.03-.02,2.05-.07,3.07l-3.07-1.08c0-.18.01-.36.02-.54.04-1.75-1.36-3.2-3.11-3.26-.04,0-.07,0-.11,0-1.76,0-3.18,1.41-3.22,3.18-.28,13.27-4.9,25.79-12.7,35.89-.96,1.25-.88,3.01.19,4.16h0c1.34,1.44,3.61,1.34,4.85-.15l3.09,1.1,1.35.48s.06.02.09.03c-2.1,2.82-4.41,5.5-6.95,8.03-4.81,4.81-10.17,8.84-15.94,12.06-1.07-1.06-2.73-1.35-4.14-.65-3.76,1.86-7.71,3.39-11.82,4.56-1.51.43-2.54,1.76-2.63,3.25,0,.07,0,.14,0,.21,0,.26.03.52.09.78.12.53.34.99.64,1.39.87,1.15,2.39,1.71,3.87,1.29,4.54-1.29,8.9-2.98,13.05-5.04,1.28-.63,2.02-1.91,2.02-3.24,0-.1,0-.2-.01-.3,6.03-3.34,11.63-7.55,16.64-12.56,2.88-2.88,5.49-5.95,7.82-9.18.43.05.85.08,1.27.09,5.35.11,10.4-3.18,12.29-8.5l5.41-15.29c1.87-5.27.06-10.95-4.08-14.24Z"/>
    <path class="cls-1" d="M171.63,26.98c-29.44,0-53.25,23.52-53.59,52.96-.25,21.88,12.6,40.78,31.2,49.34,3.95,1.82,7.47,4.47,10.31,7.77l10.14,11.82c1.02,1.19,2.86,1.19,3.89,0l10.14-11.82c2.85-3.32,6.39-5.96,10.36-7.8,18.39-8.49,31.15-27.09,31.15-48.68,0-29.6-23.99-53.59-53.59-53.59ZM147.18,87.04c-3.56,0-6.44-2.88-6.44-6.44s2.88-6.44,6.44-6.44,6.44,2.88,6.44,6.44-2.88,6.44-6.44,6.44ZM170.98,87.04c-3.56,0-6.44-2.88-6.44-6.44s2.88-6.44,6.44-6.44,6.44,2.88,6.44,6.44-2.88,6.44-6.44,6.44ZM194.79,87.04c-3.56,0-6.44-2.88-6.44-6.44s2.88-6.44,6.44-6.44,6.44,2.88,6.44,6.44-2.88,6.44-6.44,6.44Z"/>
  </g>
</svg>