<svg width="232" height="181" viewBox="0 0 232 181" fill="none" xmlns="http://www.w3.org/2000/svg">
<path d="M191.592 99.26C191.722 97.43 191.792 95.59 191.792 93.72C191.792 79.11 187.642 65.47 180.462 53.91C181.532 52.06 181.512 49.65 180.152 47.76C165.862 27.92 142.552 15 116.232 15C89.912 15 66.602 27.92 52.312 47.77C50.952 49.66 50.932 52.07 52.002 53.92C44.822 65.48 40.672 79.12 40.672 93.73C40.672 95.59 40.742 97.44 40.872 99.27C36.722 102.56 34.922 108.24 36.782 113.51L42.192 128.8C44.072 134.12 49.132 137.41 54.482 137.3C54.902 137.3 55.332 137.26 55.752 137.21C56.632 137.1 57.512 136.91 58.392 136.6C58.422 136.6 58.452 136.58 58.482 136.57L59.832 136.09L62.922 134.99C64.162 136.48 66.432 136.58 67.772 135.14C68.852 133.98 68.932 132.22 67.962 130.97C60.162 120.86 55.542 108.35 55.262 95.08C55.222 93.27 53.732 91.84 51.922 91.9C50.192 91.96 48.812 93.37 48.812 95.1V95.17C48.812 95.35 48.812 95.53 48.832 95.71L45.762 96.79C45.712 95.77 45.692 94.75 45.692 93.72C45.692 80.14 49.532 67.45 56.192 56.69C58.202 56.94 60.262 56.08 61.502 54.35C73.742 37.36 93.692 26.31 116.232 26.31C138.772 26.31 158.722 37.37 170.962 54.35C172.212 56.08 174.262 56.94 176.272 56.69C182.922 67.46 186.772 80.14 186.772 93.72C186.772 94.75 186.752 95.77 186.702 96.79L183.632 95.71C183.632 95.53 183.642 95.35 183.652 95.17C183.692 93.42 182.292 91.97 180.542 91.91C180.502 91.91 180.472 91.91 180.432 91.91C178.672 91.91 177.252 93.32 177.212 95.09C176.932 108.36 172.312 120.88 164.512 130.98C163.552 132.23 163.632 133.99 164.702 135.14C166.042 136.58 168.312 136.48 169.552 134.99L172.642 136.09L173.992 136.57C173.992 136.57 174.052 136.59 174.082 136.6C171.982 139.42 169.672 142.1 167.132 144.63C162.322 149.44 156.962 153.47 151.192 156.69C150.122 155.63 148.462 155.34 147.052 156.04C143.292 157.9 139.342 159.43 135.232 160.6C133.722 161.03 132.692 162.36 132.602 163.85C132.602 163.92 132.602 163.99 132.602 164.06C132.602 164.32 132.632 164.58 132.692 164.84C132.812 165.37 133.032 165.83 133.332 166.23C134.202 167.38 135.722 167.94 137.202 167.52C141.742 166.23 146.102 164.54 150.252 162.48C151.532 161.85 152.272 160.57 152.272 159.24C152.272 159.14 152.272 159.04 152.262 158.94C158.292 155.6 163.892 151.39 168.902 146.38C171.782 143.5 174.392 140.43 176.722 137.2C177.152 137.25 177.572 137.28 177.992 137.29C183.342 137.4 188.392 134.11 190.282 128.79L195.692 113.5C197.562 108.23 195.752 102.55 191.612 99.26H191.592Z" fill="#F9A630"/>
<path d="M116.232 40.13C86.792 40.13 62.982 63.65 62.642 93.09C62.392 114.97 75.242 133.87 93.842 142.43C97.792 144.25 101.312 146.9 104.152 150.2L114.292 162.02C115.312 163.21 117.152 163.21 118.182 162.02L128.322 150.2C131.172 146.88 134.712 144.24 138.682 142.4C157.072 133.91 169.832 115.31 169.832 93.72C169.832 64.12 145.842 40.13 116.242 40.13H116.232ZM91.782 100.19C88.222 100.19 85.342 97.31 85.342 93.75C85.342 90.19 88.222 87.31 91.782 87.31C95.342 87.31 98.222 90.19 98.222 93.75C98.222 97.31 95.342 100.19 91.782 100.19ZM115.582 100.19C112.022 100.19 109.142 97.31 109.142 93.75C109.142 90.19 112.022 87.31 115.582 87.31C119.142 87.31 122.022 90.19 122.022 93.75C122.022 97.31 119.142 100.19 115.582 100.19ZM139.392 100.19C135.832 100.19 132.952 97.31 132.952 93.75C132.952 90.19 135.832 87.31 139.392 87.31C142.952 87.31 145.832 90.19 145.832 93.75C145.832 97.31 142.952 100.19 139.392 100.19Z" fill="#50A7DD"/>
</svg>
