<svg xmlns="http://www.w3.org/2000/svg" width="60" height="60" viewBox="0 0 60 60" fill="none"><path d="M24.9994 29.9992C30.5141 29.9992 34.999 25.5144 34.999 19.9996C34.999 14.4848 30.5141 10 24.9994 10C19.4846 10 14.9998 14.4848 14.9998 19.9996C14.9998 25.5144 19.4846 29.9992 24.9994 29.9992ZM24.9994 13.3332C28.6759 13.3332 31.6658 16.3231 31.6658 19.9996C31.6658 23.6761 28.6759 26.666 24.9994 26.666C21.3229 26.666 18.333 23.6761 18.333 19.9996C18.333 16.3231 21.3229 13.3332 24.9994 13.3332ZM18.333 33.3324H28.3942L27.3493 36.6656H18.333C15.5764 36.6656 13.3332 38.9088 13.3332 41.6653V49.9983H10V41.6653C10 37.0705 13.7382 33.3324 18.333 33.3324ZM49.9983 41.1054V41.6653C49.9983 43.5053 48.5067 44.9985 46.6651 44.9985C44.8236 44.9985 43.3319 43.5053 43.3319 41.6653V41.1054L44.7552 37.0722L41.6653 36.4922V46.6668H46.6651V50H33.3324V46.6668H38.3322V35.8673L35.4123 35.3206L36.8472 39.3304V40.2887C36.6572 42.0003 35.1856 43.3319 33.424 43.3319C31.5324 43.3319 30.0008 41.7987 30.0008 39.9088V39.3538L32.5007 31.3841L38.3338 32.4657V29.9992H41.667V33.084L47.5001 34.1657L49.9983 41.1054Z" fill="#F9A630"></path></svg>