<svg xmlns="http://www.w3.org/2000/svg" width="48" height="48" viewBox="0 0 48 48" fill="none"><path d="M30 8V4M30 8V12M30 8H21M6 20V38C6 39.0609 6.42143 40.0783 7.17157 40.8284C7.92172 41.5786 8.93913 42 10 42H38C39.0609 42 40.0783 41.5786 40.8284 40.8284C41.5786 40.0783 42 39.0609 42 38V20M6 20H42M6 20V12C6 10.9391 6.42143 9.92172 7.17157 9.17157C7.92172 8.42143 8.93913 8 10 8H14M42 20V12C42 10.9391 41.5786 9.92172 40.8284 9.17157C40.0783 8.42143 39.0609 8 38 8H37M14 4V12" stroke="url(#paint0_linear_2103_40)" stroke-width="3" stroke-linecap="round" stroke-linejoin="round"></path><defs><linearGradient id="paint0_linear_2103_40" x1="24" y1="4" x2="24" y2="42" gradientUnits="userSpaceOnUse"><stop stop-color="#EEA63A"></stop><stop offset="1" stop-color="#4FA6DB"></stop></linearGradient></defs></svg>